<svg xmlns="http://www.w3.org/2000/svg" width="1920" height="1351" viewBox="0 0 1920 1351">
    <defs>
        <linearGradient id="linear-gradient" x1=".564" y1=".002" x2=".351" y2=".284" gradientUnits="objectBoundingBox">
            <stop offset="0" stop-color="#d834ff"/>
            <stop offset=".19" stop-color="#a122ff"/>
            <stop offset=".49" stop-color="#8924ff"/>
            <stop offset="1" stop-color="#00ebff"/>
        </linearGradient>
        <clipPath id="clip-path">
            <path id="사각형_7273" data-name="사각형 7273" transform="translate(-10631 -16082)" style="fill:#fff" d="M0 0h1920v1351H0z"/>
        </clipPath>
        <style>
            .cls-4{fill:url(#linear-gradient)}
        </style>
    </defs>
    <g id="img_pdf-background" transform="translate(10631 16082)" style="opacity:.9;clip-path:url(#clip-path)">
        <g id="Artwork_2" data-name="Artwork 2" transform="rotate(-6 -147923.442 82360.073)">
            <g id="그룹_27099" data-name="그룹 27099" transform="translate(-3460.639 -836.341)" style="opacity:.5">
                <g id="그룹_27062" data-name="그룹 27062">
                    <path id="패스_2153" data-name="패스 2153" class="cls-4" d="M4410.034 0A1218.634 1218.634 0 0 0 4149.2 28.679a1236.857 1236.857 0 0 0-275.9 95.49c-134.4 65.392-266.347 156.28-403.39 277.86-122.229 108.439-237.41 230.981-348.792 349.488-133.271 141.79-271.08 288.41-423.035 413.345C2370.74 1434 1940.213 1632.9 1418.462 1756.054 953.324 1865.843 468.683 1905.651 0 1944.149l.255 3.109c468.8-38.508 953.558-78.325 1418.924-188.168 522.217-123.258 953.169-322.375 1280.885-591.817 152.11-125.064 289.988-271.755 423.327-413.62 111.337-118.456 226.465-240.944 348.591-349.29 136.826-121.388 268.547-212.122 402.685-277.389a1233.866 1233.866 0 0 1 275.2-95.249c96.9-21.255 194.712-30.746 290.7-28.2 204.948 5.431 390.142 65.335 535.56 173.236C5109.472 275.7 5213.169 415.071 5284.342 591c60.6 149.795 96.9 323.213 107.905 515.441 8.51 148.719 3.86 300.469-.634 447.222-6.022 196.506-12.249 399.7 13.1 597.865 12.736 99.555 37.961 225.15 120.669 313.427 56.487 60.292 136.539 99.117 231.5 112.28 87.208 12.085 182.1 1.379 267.184-30.151 172.111-63.776 307.6-195.136 421.089-313.258a6145.859 6145.859 0 0 0 641.957-790.065c190.846-279.519 358.426-575.491 498.09-879.7l-2.833-1.3c-139.592 304.047-307.087 599.865-497.832 879.238a6142.525 6142.525 0 0 1-641.63 789.664c-113.248 117.872-248.43 248.947-419.923 312.493-84.617 31.355-178.972 42.005-265.672 29.986-94.246-13.063-173.658-51.558-229.653-111.323-82.1-87.624-107.174-212.6-119.851-311.689-25.317-197.918-19.1-400.989-13.079-597.374 4.5-146.821 9.152-298.639.631-447.5-11.02-192.57-47.4-366.322-108.126-516.433-71.391-176.462-175.434-316.281-309.244-415.566C4832.053 65.972 4646.245 5.856 4440.655.408Q4425.373 0 4410.034 0z" transform="translate(0 -.003)"/>
                </g>
                <g id="그룹_27063" data-name="그룹 27063" transform="translate(5.47 22.138)">
                    <path id="패스_2154" data-name="패스 2154" class="cls-4" d="M4370.63 0a1224.673 1224.673 0 0 0-255.09 27.257 1240.709 1240.709 0 0 0-273.508 92.343c-106.532 50.645-209.908 115.89-316.047 199.466-84.654 66.659-172.7 146.292-277.091 250.605-53.559 53.516-107.189 109.2-159.053 163.051-132.2 137.266-268.909 279.205-419.052 400.651-146.048 118.112-314.276 224.1-500.012 315.016-226.824 111.075-485.033 202.191-767.454 270.815C946.95 1829.74 479.107 1872.905 0 1910.795l.247 3.11c479.236-37.9 947.215-81.078 1403.811-191.671 282.641-68.677 541.064-159.87 768.09-271.045 185.947-91.019 354.373-197.131 500.6-315.391 150.292-121.568 287.066-263.58 419.336-400.913 51.855-53.839 105.473-109.511 159.012-163.007 104.3-104.225 192.26-183.778 276.816-250.361 105.954-83.431 209.14-148.555 315.455-199.095a1237.613 1237.613 0 0 1 272.822-92.112C4212.171 9.848 4309.021.862 4404.055 3.6c202.788 5.848 386.431 64.78 531.075 170.424 132.453 96.79 236.4 233.09 308.958 405.116 61.631 146.125 100.022 315.674 114.109 503.938 10.882 145.593 8.971 294.2 7.124 437.923-2.473 192.141-5.026 390.82 22.983 584.646 10.668 73.7 24.664 130.786 44.046 179.65 20.241 51.06 46.111 92.713 79.088 127.337 56.418 59.2 135.869 97.427 229.763 110.548 86.351 12.063 180.325 1.757 264.6-29.031 75.514-27.614 149.357-70.176 225.749-130.113 70.422-55.253 133.944-117.927 192.1-177.423 205.458-210.193 394.851-431.108 562.915-656.609 116.44-156.306 230.744-324.606 339.735-500.228 27.373-44.113 53.3-86.885 77.066-127.127 70.7-118.94 129.423-231.7 179.517-344.736l-2.854-1.265c-50.042 112.918-108.706 225.575-179.347 344.411-23.755 40.227-49.671 82.98-77.034 127.072-108.941 175.548-223.193 343.777-339.58 500.012-167.982 225.388-357.284 446.2-562.646 656.293-58.084 59.421-121.519 122.006-191.8 177.148-76.128 59.73-149.693 102.136-224.893 129.637-83.8 30.614-177.236 40.865-263.1 28.869-93.192-13.021-172.009-50.924-227.936-109.61-32.695-34.327-58.356-75.652-78.447-126.333-19.288-48.633-33.226-105.494-43.859-178.95-27.975-193.582-25.421-392.138-22.952-584.157 1.849-143.786 3.761-292.467-7.131-438.2-14.112-188.6-52.583-358.479-114.345-504.917-72.779-172.554-177.075-309.295-309.991-406.422C4791.813 65.489 4607.565 6.35 4404.146.485Q4387.433 0 4370.63 0z" transform="translate(0 -.003)"/>
                </g>
                <g id="그룹_27064" data-name="그룹 27064" transform="translate(10.941 44.267)">
                    <path id="패스_2155" data-name="패스 2155" class="cls-4" d="M4331.13 0a1231.6 1231.6 0 0 0-249.25 25.849 1245.28 1245.28 0 0 0-271.12 89.2c-105.725 49.058-208.477 112.343-314.126 193.469-84.427 64.833-172.23 142.24-276.322 243.6-54.532 53.1-109.152 108.407-161.974 161.892-131.063 132.725-266.588 269.96-414.838 387.882-145.17 115.432-312.173 219.615-496.368 309.652-224.826 109.993-480.172 201.11-758.945 270.818-209 51.939-434.975 93.385-690.825 126.705C445.541 1841.862 192.4 1862.839 0 1877.449l.237 3.11c192.439-14.614 445.633-35.594 697.524-68.4 255.97-33.336 482.057-74.8 691.177-126.774 278.988-69.759 534.54-160.951 759.563-271.04 184.4-90.137 351.591-194.44 496.939-310.011 148.4-118.04 283.99-255.342 415.118-388.124 52.811-53.477 107.419-108.776 161.93-161.85 104-101.279 191.717-178.61 276.046-243.365C3604 230.01 3706.558 166.843 3812.073 117.882a1242 1242 0 0 1 270.439-88.975C4177.579 9.237 4273.484.753 4367.54 3.688c200.625 6.263 382.717 64.221 526.586 167.61 307.588 221.264 403.623 605.258 430.02 888.428 13.26 142.479 14.093 287.97 14.9 428.671 1.074 187.756 2.186 381.906 32.847 571.376 11.725 72.22 26.371 128.086 46.092 175.816 20.634 50 46.641 90.8 79.511 124.734 56.35 58.107 135.2 95.735 228.022 108.812 85.507 12.048 178.563 2.137 262.016-27.908 164.709-59.419 295.137-181.681 414.615-301.815 212.491-213.66 405.487-432.71 573.629-651.06 113.667-147.743 228.131-308.6 349.925-491.776 25.406-38.21 51.538-78.181 79.9-122.2 75.8-117.665 131.4-220.179 174.958-322.614l-2.872-1.222c-43.489 102.27-99 204.634-174.708 322.146-28.351 44.005-54.476 83.963-79.872 122.159-121.755 183.113-236.177 343.917-349.8 491.6-168.058 218.245-360.969 437.194-573.367 650.762-119.227 119.882-249.362 241.88-413.459 301.079-82.983 29.875-175.507 39.733-260.525 27.755-92.131-12.98-170.356-50.29-226.218-107.895-32.589-33.646-58.387-74.125-78.866-123.753-19.627-47.5-34.213-103.149-45.9-175.125-30.621-189.231-31.731-383.257-32.805-570.9-.8-140.767-1.636-286.327-14.911-428.943-26.458-283.814-122.764-668.722-431.3-890.672C4751.571 65.014 4568.884 6.853 4367.637.571Q4349.429 0 4331.13 0z" transform="translate(0 -.003)"/>
                </g>
                <g id="그룹_27065" data-name="그룹 27065" transform="translate(16.413 66.387)">
                    <path id="패스_2156" data-name="패스 2156" class="cls-4" d="M4291.513 0a1257.844 1257.844 0 0 0-512.025 110.5c-104.926 47.476-207.049 108.8-312.207 187.478-84.208 63-171.768 138.186-275.552 236.6-55.6 52.707-111.294 107.676-165.159 160.835-129.835 128.137-264.094 260.636-410.366 375-144.277 112.743-310.052 215.119-492.723 304.288-222.917 108.953-475.4 200.069-750.438 270.818-209.308 53.364-433.012 95.835-683.889 129.833-202.524 27.454-421.508 49.301-689.154 68.76l.226 3.112c267.712-19.466 486.758-41.318 689.346-68.774 251-34.015 474.817-76.507 684.246-129.9 275.244-70.8 527.927-161.992 751.034-271.038 182.864-89.262 348.825-191.756 493.274-304.632 146.414-114.475 280.737-247.038 410.636-375.238 53.854-53.148 109.541-108.106 165.115-160.79 103.695-98.33 191.165-173.438 275.275-236.369 104.972-78.541 206.9-139.751 311.623-187.133a1247.291 1247.291 0 0 1 268.057-85.839 1228.189 1228.189 0 0 1 282.192-23.728c198.461 6.679 379 63.661 522.1 164.794 168.2 119.057 380.545 366.256 436.969 867.8 15.645 139.38 19.228 281.762 22.694 419.457 4.614 183.362 9.384 372.966 42.687 558.071 8.042 44.5 21.783 110.752 48.138 171.98 21.028 48.936 47.176 88.886 79.934 122.129 56.283 57.018 134.53 94.046 226.281 107.079 84.672 12.029 176.805 2.515 259.433-26.787 73.7-26.215 146.184-67.173 221.6-125.215 70.353-54.145 134.85-116.595 189.779-170.877 223.087-220.457 414.229-431.606 584.345-645.509 136.433-171.776 264.121-348.53 360.121-483.326 27.436-38.532 53.7-75.9 82.721-117.268 80.745-115.072 131.708-204.938 170.4-300.493l-2.89-1.171c-38.6 95.323-89.465 185-170.066 299.872-29.021 41.358-55.278 78.725-82.712 117.248-95.976 134.766-223.633 311.478-360.021 483.194-170.037 213.807-361.1 424.863-584.095 645.232-54.864 54.219-119.276 116.588-189.489 170.625-75.15 57.839-147.356 98.645-220.74 124.746-82.162 29.137-173.772 38.6-257.947 26.638-91.071-12.936-168.7-49.652-224.5-106.181-32.48-32.96-58.415-72.6-79.289-121.169-26.227-60.937-39.917-126.95-47.932-171.3-33.26-184.868-38.029-374.351-42.64-557.6-3.466-137.762-7.05-280.213-22.712-419.728-20.323-180.656-62.979-342.784-126.784-481.886-75.553-164.715-180.352-295.3-311.484-388.115C4711.327 64.545 4530.2 7.365 4331.129.666Q4311.381 0 4291.513 0z" transform="translate(0 -.003)"/>
                </g>
                <g id="그룹_27066" data-name="그룹 27066" transform="translate(21.883 88.495)">
                    <path id="패스_2157" data-name="패스 2157" class="cls-4" d="M4251.768 0a1264.742 1264.742 0 0 0-503.55 105.972c-235.364 103.733-427.835 266.018-585.071 411.085-56.756 52.347-113.633 107.018-168.639 159.887-128.514 123.525-261.4 251.254-405.6 362.016C2445.554 1149 2281 1249.576 2099.833 1337.887c-221.108 107.959-470.73 199.077-741.928 270.819C974.928 1708.868 543.444 1773.082 0 1810.789l.216 3.112c543.642-37.721 975.308-101.964 1358.483-202.178 271.4-71.794 521.213-162.983 742.5-271.032 181.356-88.4 346.085-189.086 489.61-299.254C2735.144 930.568 2868.1 802.779 2996.671 679.2c54.993-52.859 111.859-107.517 168.592-159.844 157.048-144.892 349.27-306.975 584.212-410.523a1253.431 1253.431 0 0 1 265.677-82.7 1235.359 1235.359 0 0 1 279.355-22.242c196.3 7.09 375.289 63.1 517.617 161.98 129.791 90.353 234.492 217.446 311.2 377.745 64.668 135.143 109.322 293.084 132.724 469.433 18.043 136.3 24.384 275.594 30.517 410.3 8.145 178.948 16.568 363.989 52.5 544.706 8.711 43.567 23.391 108.4 50.183 168.146 21.426 47.879 47.711 86.976 80.356 119.523 56.219 55.929 133.864 92.357 224.542 105.345 83.83 12.008 175.044 2.895 256.846-25.665 157.742-55.3 283.072-168.906 408.144-290.37 231.21-224.543 425.856-433.876 595.054-639.961 119.274-145.516 232.773-294.423 342.533-438.427l27.784-36.445q17.487-22.936 34.643-45.531c17.667-23.246 34.355-45.2 50.9-66.807 84.366-110.147 132.417-190.8 165.858-278.379l-2.914-1.112c-33.326 87.279-81.252 167.7-165.419 277.6-16.551 21.611-33.242 43.568-50.91 66.815q-17.131 22.541-34.639 45.528l-27.784 36.444c-109.743 143.982-223.225 292.867-342.463 438.341-169.123 205.993-363.69 415.24-594.816 639.7-124.812 121.213-249.857 234.578-407 289.664-81.34 28.4-172.032 37.463-255.376 25.522-90.008-12.894-167.044-49.018-222.783-104.468-32.37-32.271-58.442-71.061-79.71-118.587-26.666-59.464-41.292-124.064-49.972-167.481-35.89-180.485-44.306-365.4-52.448-544.238-6.135-134.774-12.478-274.136-30.539-410.571-23.445-176.676-68.193-334.93-133-470.37-76.939-160.792-181.991-288.292-312.23-378.959C4671.082 64.089 4491.518 7.887 4294.62.774Q4273.261 0 4251.768 0z" transform="translate(0 -.003)"/>
                </g>
                <g id="그룹_27067" data-name="그룹 27067" transform="translate(27.354 110.592)">
                    <path id="패스_2158" data-name="패스 2158" class="cls-4" d="M4211.9 0a1272.347 1272.347 0 0 0-494.95 101.452c-233.892 100.293-425.648 257.518-582.381 398.09-58.024 52.019-116.187 106.427-172.434 159.044-127.087 118.879-258.5 241.808-400.512 348.926-142.419 107.328-305.742 206.1-485.431 293.559-219.424 107.025-466.183 198.142-733.423 270.822C953.568 1676.3 514.344 1743.549 0 1777.477l.206 3.113c514.55-33.941 953.971-101.222 1343.374-205.683 267.433-72.731 514.375-163.918 733.973-271.028 179.87-87.551 343.366-186.423 485.943-293.875 142.145-107.216 273.62-230.2 400.766-349.137 56.236-52.607 114.388-107 172.388-159 156.541-140.4 348.05-297.432 581.525-397.544a1260.451 1260.451 0 0 1 263.3-79.568A1244.057 1244.057 0 0 1 4257.993 4.01c194.132 7.5 371.569 62.542 513.131 159.165 128.9 88.213 233.854 212.235 311.944 368.623C5148.726 663.29 5195.47 817.362 5222 989.73c20.45 133.242 29.559 269.469 38.368 401.21 11.669 174.514 23.736 354.969 62.287 531.28 15.114 68.682 31.223 119.356 52.23 164.311 21.82 46.816 48.244 85.06 80.777 116.914 56.159 54.84 133.2 90.668 222.8 103.613 82.993 11.987 173.287 3.273 254.263-24.545 71.919-24.833 143.058-64.181 217.486-120.288 66.755-50.325 129.19-108.789 187.42-164.361 243.27-232.162 435.757-433.75 605.767-634.412 87.653-103.661 173.216-209.845 255.961-312.531 43.032-53.4 83.679-103.843 124.545-153.887l5.467-6.7c28.976-35.5 56.344-69.024 82.9-100.708 75.31-89.849 128.563-164.062 161.315-256.273l-2.939-1.043c-32.6 91.769-85.681 165.728-160.767 255.311-26.57 31.7-53.945 65.236-82.927 100.74l-5.466 6.7c-40.875 50.05-81.523 100.5-124.56 153.9-82.733 102.672-168.284 208.839-255.914 312.472-169.936 200.574-362.348 402.088-605.537 634.171-58.164 55.507-120.526 113.9-187.146 164.125-74.162 55.909-145.021 95.107-216.626 119.832-80.513 27.658-170.292 36.324-252.8 24.406-88.941-12.849-165.386-48.383-221.067-102.753-32.258-31.587-58.47-69.533-80.132-116.006-20.906-44.739-36.944-95.214-52.008-163.66-38.5-176.083-50.56-356.42-62.222-530.819-8.812-131.809-17.925-268.1-38.4-401.476-26.575-172.686-73.412-327.066-139.216-458.853-78.328-156.868-183.63-281.287-312.975-369.8C4630.838 63.646 4452.833 8.419 4258.114.893Q4235.085 0 4211.9 0z" transform="translate(0 -.003)"/>
                </g>
                <g id="그룹_27068" data-name="그룹 27068" transform="translate(32.826 132.675)">
                    <path id="패스_2159" data-name="패스 2159" class="cls-4" d="M4171.871 0a1281.007 1281.007 0 0 0-486.2 96.943C3453.235 193.8 3262.2 345.965 3105.986 482.04c-59.405 51.723-118.971 105.908-176.576 158.309-125.548 114.205-255.371 232.3-395.083 335.73-141.451 104.605-303.549 201.569-481.788 288.2-220.615 107.491-464.51 198.608-724.911 270.823-206.118 57.161-429.183 104.111-663 139.545-208.749 31.633-432.362 55.027-664.628 69.53l.2 3.113c232.355-14.508 456.062-37.913 664.9-69.562 233.937-35.452 457.124-82.429 663.364-139.623 260.584-72.266 504.658-163.451 725.443-271.024 178.409-86.71 340.67-183.774 482.278-288.494 139.84-103.524 269.721-221.673 395.327-335.931 57.592-52.39 117.146-106.563 176.524-158.263 156.028-135.912 346.814-287.886 578.841-384.566a1268.413 1268.413 0 0 1 260.918-76.432 1253.248 1253.248 0 0 1 273.68-19.254c191.969 7.916 367.855 61.982 508.646 156.352 128.013 86.073 233.217 207.027 312.693 359.5 66.64 127.848 115.47 278.05 145.137 446.434 22.873 130.2 34.759 263.377 46.258 392.169 15.18 170.063 30.877 345.914 72.034 517.8 16.2 67.177 32.94 116.668 54.274 160.474 22.22 45.757 48.778 83.148 81.2 114.309 56.1 53.751 132.543 88.98 221.063 101.879 82.151 11.974 171.531 3.653 251.677-23.423 163.483-55.574 295.549-179.417 401.669-278.928 252.791-237.047 448.682-436.873 616.479-628.865 67.352-77.237 134.075-156.346 198.6-232.85 66.507-78.855 129.33-153.338 192.1-225.115 29.834-34.125 61.45-70.148 91.186-102.47 80.982-88.022 129.953-151.412 156.781-234.171l-2.966-.962c-26.652 82.214-75.427 145.324-156.109 233.021-29.761 32.349-61.394 68.388-91.241 102.531-62.787 71.8-125.616 146.288-192.133 225.156-64.516 76.494-131.231 155.593-198.563 232.811-167.729 191.91-363.55 391.664-616.264 628.64-105.9 99.3-237.7 222.892-400.539 278.248-79.686 26.922-168.55 35.2-250.227 23.291-87.872-12.806-163.723-47.745-219.352-101.043-32.147-30.9-58.5-68-80.55-113.423-21.234-43.6-37.9-92.891-54.048-159.838-41.1-171.661-56.791-347.4-71.962-517.348-11.5-128.857-23.4-262.1-46.289-392.432-29.723-168.7-78.656-319.2-145.443-447.336-79.719-152.94-185.27-274.279-313.721-360.647C4590.589 63.213 4414.146 8.965 4221.6 1.025Q4196.825 0 4171.871 0z" transform="translate(0 -.003)"/>
                </g>
                <g id="그룹_27069" data-name="그룹 27069" transform="translate(38.296 154.745)">
                    <path id="패스_2160" data-name="패스 2160" class="cls-4" d="M4131.691 0a1290.567 1290.567 0 0 0-477.284 92.45c-231.025 93.416-421.321 240.521-577 372.1-60.928 51.468-122.038 105.484-181.138 157.721-123.872 109.486-251.959 222.7-389.234 322.386-140.444 101.862-301.316 197.022-478.144 282.834-216.6 105.415-464.329 199.065-716.4 270.825C914.751 1611.543 473.166 1683.063 0 1710.892l.184 3.113c473.392-27.842 915.2-99.4 1313.16-212.689 252.247-71.807 500.151-165.524 716.913-271.018 176.989-85.891 338.017-181.145 478.612-283.116 137.4-99.771 265.541-213.037 389.468-322.574 59.084-52.225 120.182-106.227 181.085-157.674 155.491-131.42 345.54-278.34 576.154-371.589a1277.425 1277.425 0 0 1 258.54-73.3 1263.866 1263.866 0 0 1 270.844-17.76c189.8 8.33 364.137 61.422 504.163 153.539 127.121 83.935 232.577 201.819 313.439 350.376 67.608 124.21 118.527 270.543 151.343 434.936 25.309 127.178 39.992 257.331 54.189 383.2 18.679 165.588 38 336.813 81.739 504.25 11.64 44.211 28.561 101.965 56.319 156.637 22.615 44.7 49.314 81.235 81.618 111.7 56.048 52.663 131.888 87.292 219.324 100.143 81.316 11.956 169.781 4.035 249.091-22.3 70.179-23.472 139.983-61.2 213.41-115.337 63.3-46.675 121.248-99.112 185.025-157.87 179.525-165.4 413.054-385.724 627.192-623.316 53.21-59.192 106.412-119.788 157.862-178.389 84.162-95.854 163.659-186.403 243.026-271.12 30.612-32.691 63.187-67.131 94-97.539 86.328-85.177 131.131-138.638 152.25-212.077l-3-.862c-20.928 72.772-65.509 125.93-151.444 210.72-30.854 30.445-63.455 64.914-94.087 97.626-79.4 84.754-158.91 175.317-243.088 271.2-51.445 58.595-104.639 119.183-157.839 178.36-214.047 237.495-447.51 457.753-626.988 623.108-111.545 102.769-237.971 219.249-397.307 272.542-78.853 26.182-166.807 34.058-247.65 22.173-86.8-12.759-162.059-47.105-217.636-99.328-32.037-30.214-58.525-66.472-80.978-110.842-21.556-42.455-38.853-90.572-56.083-156.017-43.687-167.219-62.989-338.332-81.655-503.81-14.206-125.931-28.9-256.15-54.231-383.457-32.877-164.7-83.9-311.332-151.662-435.818-81.102-149.013-186.908-267.272-314.464-351.491C4550.342 62.792 4375.46 9.523 4185.1 1.169Q4158.5 0 4131.691 0z" transform="translate(0 -.003)"/>
                </g>
                <g id="그룹_27070" data-name="그룹 27070" transform="translate(43.769 176.787)">
                    <path id="패스_2161" data-name="패스 2161" class="cls-4" d="M4090.728 0a1294.31 1294.31 0 0 0-467.592 87.983c-229.636 89.976-419.181 232.021-574.31 359.105-62.61 51.256-125.424 105.159-186.17 157.286-122.042 104.726-248.239 213.014-382.913 308.89-139.4 99.1-299.044 192.454-474.5 277.47-215.874 104.941-460.658 198.591-707.894 270.828-205.84 60.14-424.227 109.221-649.1 145.882A6145.08 6145.08 0 0 1 0 1677.633l.171 3.115a6147.857 6147.857 0 0 0 648.579-70.224c225-36.681 443.512-85.793 649.472-145.968 247.4-72.284 492.356-166 708.382-271.015 175.61-85.089 335.406-178.534 474.946-277.734 134.793-95.96 261.043-204.295 383.136-309.064 60.734-52.115 123.535-106 186.117-157.24 154.939-126.928 344.241-268.8 573.469-358.611 166.034-64.78 347.291-94.666 524.17-86.431 187.631 8.737 360.418 60.857 499.676 150.725 126.234 81.8 231.944 196.613 314.192 341.254 68.563 120.576 121.569 263.042 157.547 423.44 27.77 124.184 45.263 251.34 62.181 374.308 22.16 161.088 45.077 327.657 91.386 490.617 12.375 43.193 30.193 99.592 58.365 152.8 23.013 43.636 49.85 79.322 82.038 109.1 56 51.577 131.234 85.606 217.579 98.41 80.494 11.937 168.038 4.415 246.507-21.18 156.554-51.488 283.338-166.241 395.2-267.485 208.749-188.939 430.51-394.551 637.905-617.768 42.806-46.2 85.86-93.466 127.5-139.179 98.141-107.744 190.841-209.514 283.573-301.881 29.57-29.466 64.2-63.513 96.816-92.6 82.755-73.8 130.417-119.013 147.727-190l-3.032-.739c-17.087 70.085-64.478 115.02-146.769 188.408-32.678 29.142-67.342 63.225-96.942 92.721-92.786 92.422-185.511 194.218-283.678 301.992-41.633 45.706-84.685 92.968-127.479 139.156-207.314 223.131-429.013 428.685-637.712 617.577-111.63 101.036-238.153 215.553-394.077 266.833-78.017 25.448-165.057 32.927-245.076 21.058-85.725-12.712-160.389-46.467-215.924-97.615-31.921-29.527-58.547-64.94-81.4-108.261-28.036-52.958-45.787-109.156-58.121-152.2-46.25-162.745-69.151-329.207-91.3-490.186-16.924-123.035-34.424-250.257-62.224-374.566-36.047-160.7-89.166-303.454-157.881-424.3-82.5-145.082-188.548-260.256-315.209-342.331C4510.089 62.4 4336.771 10.106 4148.587 1.345Q4119.723 0 4090.728 0z" transform="translate(0 -.002)"/>
                </g>
                <g id="그룹_27071" data-name="그룹 27071" transform="translate(49.241 198.824)">
                    <path id="패스_2162" data-name="패스 2162" class="cls-4" d="M4050.23 0a1306.694 1306.694 0 0 0-458.365 83.522c-228.277 86.532-417.058 223.519-571.619 346.108-64.456 51.088-129.144 104.929-191.7 157-120.047 99.917-244.179 203.236-376.092 295.244-138.307 96.318-296.726 187.869-470.857 272.108-215.366 104.57-457.211 198.219-699.388 270.829C877.222 1546.232 433.841 1622.16 0 1644.379l.158 3.116c434.088-22.234 877.723-98.2 1282.944-219.7 242.334-72.657 484.338-166.371 699.852-271.01 174.277-84.309 332.839-175.944 471.28-272.356 132.022-92.085 256.208-195.447 376.3-295.405 62.544-52.057 127.218-105.887 191.646-156.951 154.373-122.441 342.909-259.257 570.786-345.636 164.713-62.137 344.161-90.413 518.954-81.8 185.463 9.146 356.7 60.294 495.194 147.91 230.742 146.651 391.8 397 478.694 744.077 30.25 121.217 50.575 245.4 70.229 365.5 25.626 156.559 52.122 318.449 100.976 476.906 13.115 42.175 31.831 97.218 60.406 148.962 23.416 42.574 50.388 77.408 82.46 106.488 55.951 50.491 130.583 83.918 215.837 96.675 79.668 11.92 166.29 4.8 243.922-20.058 153.246-49.526 274.6-157.42 391.961-261.765 203.064-180.54 437.4-391.628 648.617-612.22 34.835-36.488 70.012-73.8 104.033-109.875C7113.91 970.943 7217.485 861.1 7321.478 764.5c28.42-26.41 65.426-60.244 99.626-87.67l2.431-1.948c85.778-68.78 128.836-103.3 140.777-165.982l-3.064-.583c-11.728 61.546-54.484 95.829-139.663 164.131l-2.432 1.949c-34.28 27.49-71.342 61.372-99.8 87.819-104.068 96.665-207.678 206.545-317.372 322.876-34.016 36.076-69.19 73.381-104.016 109.861-211.136 220.51-445.416 431.547-648.433 612.047-117.119 104.13-238.226 211.8-390.845 261.127-77.179 24.712-163.307 31.8-242.5 19.942-84.645-12.664-158.717-45.828-214.207-95.9-31.809-28.842-58.573-63.41-81.82-105.68-28.442-51.5-47.089-106.348-60.158-148.379-48.79-158.25-75.27-320.031-100.876-476.487-19.666-120.159-40-244.409-70.281-365.751-87.1-347.883-248.61-598.858-480.052-745.955-138.958-87.909-310.716-139.223-496.716-148.396Q4081.247 0 4050.23 0z" transform="translate(0 -.002)"/>
                </g>
                <g id="그룹_27072" data-name="그룹 27072" transform="translate(54.713 220.845)">
                    <path id="패스_2163" data-name="패스 2163" class="cls-4" d="M4009.53 0a1320.618 1320.618 0 0 0-448.93 79.079c-226.958 83.09-414.959 215.018-568.929 333.113-66.507 50.969-133.272 104.821-197.839 156.9-117.854 95.057-239.72 193.348-368.671 281.413-139.088 94.823-291.916 182.077-467.214 266.744-215.112 104.314-454.013 197.966-690.88 270.83C857.008 1514.22 418.864 1591.355 0 1611.143l.147 3.116c419.121-19.8 857.532-96.982 1267.835-223.2 237.016-72.912 476.072-166.622 691.321-271.006 175.436-84.734 328.395-172.064 467.613-266.975 129.053-88.133 250.97-186.466 368.87-281.56 64.553-52.067 131.3-105.9 197.779-156.851 153.784-117.951 341.542-249.714 568.1-332.659 163.391-59.491 341.035-86.18 513.741-77.176 183.291 9.554 352.976 59.728 490.711 145.1 228.4 142.286 391.8 385.693 485.652 723.46 32.76 118.282 55.942 239.531 78.361 356.786 29.063 152 59.114 309.177 110.479 463.1 13.857 41.156 33.477 94.839 62.452 145.122 23.813 41.515 50.922 75.5 82.879 103.881 55.906 49.4 129.939 82.233 214.1 94.938a540.628 540.628 0 0 0 241.335-18.937c150.061-47.62 270.12-152.466 386.23-253.861l2.495-2.179c240.253-209.8 455.7-400.257 659.332-606.676 28.546-29.028 57.454-58.69 85.41-87.375 114.177-117.155 232.24-238.3 346.029-336.782 43.211-37.419 74.8-62.936 102.434-82.734q11.445-8.2 21.872-15.6c73.5-52.293 110.389-78.54 116.818-130.287l-3.1-.383c-6.257 50.384-42.777 76.365-115.53 128.127q-10.432 7.423-21.882 15.607c-27.712 19.857-59.372 45.428-102.657 82.912-113.887 98.572-232 219.762-346.222 336.963-27.951 28.683-56.86 58.342-85.4 87.363-203.559 206.341-418.955 396.758-659.161 606.514l-2.5 2.179c-115.867 101.186-235.681 205.815-385.118 253.237a537.526 537.526 0 0 1-239.93 18.828c-83.561-12.615-157.039-45.187-212.493-94.191-31.7-28.155-58.6-61.88-82.243-103.1-28.839-50.048-48.389-103.545-62.2-144.559-51.3-153.72-81.332-310.791-110.375-462.691-22.431-117.318-45.626-238.63-78.419-357.036-94.073-338.543-257.927-582.561-487.012-725.273C4429.582 61.632 4259.385 11.3 4075.569 1.716Q4042.65 0 4009.53 0z" transform="translate(0 -.002)"/>
                </g>
                <g id="그룹_27073" data-name="그룹 27073" transform="translate(60.185 242.847)">
                    <path id="패스_2164" data-name="패스 2164" class="cls-4" d="M3968.6 0a1335.922 1335.922 0 0 0-439.271 74.648c-225.673 79.652-412.876 206.52-566.237 320.122-68.783 50.906-137.854 104.839-204.653 157C2643 641.9 2523.63 735.111 2397.868 819.147c-137.846 91.939-289.482 177.439-463.572 261.383-215.153 104.2-451.112 197.851-682.372 270.833a5143.319 5143.319 0 0 1-628.255 155.363c-212.8 38.571-422.632 62.525-623.669 71.2l.135 3.116c201.179-8.679 411.153-32.649 624.092-71.246a5146.133 5146.133 0 0 0 628.638-155.457c231.4-73.025 467.505-166.736 682.788-271 174.22-84.006 325.979-169.576 463.948-261.6 125.858-84.1 245.275-177.343 360.759-267.516 66.783-52.144 135.839-106.065 204.588-156.948 153.175-113.463 340.136-240.175 565.416-319.681 162.061-56.844 337.905-81.933 508.526-72.55 181.117 9.962 349.252 59.164 486.228 142.285 123.566 75.4 230.033 181.012 316.442 313.892 71.349 109.722 130.622 240.585 176.168 388.951 35.3 115.376 61.371 233.722 86.582 348.171 32.473 147.41 66.051 299.839 119.9 449.191 14.608 40.143 35.138 92.478 64.494 141.283 24.217 40.457 51.465 73.584 83.3 101.272 55.871 48.323 129.3 80.551 212.355 93.206a539.873 539.873 0 0 0 238.748-17.815c147.037-45.785 265.326-147.248 379.718-245.368l13.531-11.6c222.545-190.843 452.669-388.184 662.286-594.476 23.465-23.169 47.272-46.831 70.3-69.712 122.315-121.566 248.795-247.27 371.327-345.994 44.274-35.692 76.731-59.687 105.236-77.8 14.71-9.348 28.265-17.7 40.224-25.065 63.375-39.038 92.3-56.856 93.952-98.8l-3.116-.123c-1.588 40.289-30.07 57.833-92.473 96.272-11.967 7.372-25.532 15.727-40.262 25.089-28.607 18.18-61.151 42.237-105.521 78.006-122.657 98.823-249.2 224.588-371.567 346.21-23.022 22.88-46.826 46.54-70.286 69.7-209.538 206.216-439.621 403.521-662.128 594.331l-13.529 11.6c-114.154 97.916-232.189 199.164-378.608 244.757a536.739 536.739 0 0 1-237.358 17.711c-82.472-12.566-155.358-44.545-210.779-92.477-31.576-27.467-58.619-60.349-82.667-100.522-29.219-48.581-49.677-100.733-64.237-140.74-53.773-149.158-87.331-301.487-119.782-448.8-25.225-114.508-51.308-232.916-86.645-348.414-45.633-148.645-105.027-279.771-176.534-389.738-86.665-133.274-193.466-239.207-317.437-314.855-137.428-83.396-306.064-132.753-487.691-142.741Q4003.956 0 3968.6 0z" transform="translate(0 -.002)"/>
                </g>
                <g id="그룹_27074" data-name="그룹 27074" transform="translate(65.658 264.826)">
                    <path id="패스_2165" data-name="패스 2165" class="cls-4" d="M3927.417 0a1352.82 1352.82 0 0 0-429.359 70.246c-224.431 76.191-410.818 198.009-563.545 307.123-71.317 50.9-142.959 105-212.241 157.318-112.771 85.155-229.379 173.209-351.7 253.128-136.506 89.007-286.95 172.751-459.93 256.018-215.554 104.256-448.573 197.908-673.866 270.836a5047 5047 0 0 1-621.306 158.517C403.1 1513.034 196.024 1537.1 0 1544.73l.121 3.116c196.177-7.631 403.4-31.719 615.929-71.593a5050.417 5050.417 0 0 0 621.694-158.614c225.425-72.973 458.581-166.68 674.259-270.994 173.1-83.326 323.658-167.135 460.279-256.216 122.406-79.976 239.06-168.063 351.871-253.251 69.266-52.305 140.892-106.39 212.173-157.268 152.542-108.98 338.689-230.646 562.733-306.71 160.73-54.2 334.78-77.684 503.311-67.921 178.942 10.369 345.527 58.6 481.747 139.472 122.677 73.277 229.4 175.818 317.194 304.774 72.248 106.122 133.609 233.115 182.374 377.456 37.884 112.511 66.877 227.994 94.917 339.675 35.845 142.78 72.913 290.423 129.2 435.163 15.36 39.125 36.8 90.1 66.539 137.443 24.621 39.4 52 71.674 83.716 98.665 55.835 47.239 128.663 78.868 210.611 91.471a539.192 539.192 0 0 0 236.162-16.693c144.169-44.015 260.765-142.245 373.521-237.242l8.737-7.358q26.478-22.3 52.94-44.552c210.5-177.1 428.176-360.233 627.813-551.03 19.291-18.5 38.887-37.382 57.837-55.64 129.539-124.812 263.487-253.874 393.967-351.616 44.776-33.565 79.1-56.719 108.035-72.873 22.269-12.433 41.049-22.057 57.619-30.551 52.654-26.988 74.451-38.159 72.035-71.343l-3.112.227c2.267 31.123-18.991 42.018-70.347 68.341-16.592 8.5-35.4 18.142-57.715 30.6-29.055 16.222-63.5 39.45-108.386 73.1-130.635 97.858-264.653 226.988-394.26 351.867-18.95 18.258-38.545 37.138-57.831 55.633-199.566 190.727-417.2 373.825-627.666 550.9q-26.458 22.259-52.94 44.552l-8.735 7.359c-112.519 94.794-228.867 192.817-372.418 236.642a536.051 536.051 0 0 1-234.784 16.6c-81.378-12.514-153.67-43.9-209.065-90.765-31.461-26.778-58.643-58.815-83.091-97.942-29.6-47.129-50.969-97.93-66.277-136.923-56.212-144.556-93.254-292.1-129.078-434.789-28.054-111.74-57.061-227.283-94.984-339.912-48.857-144.61-110.343-271.859-182.754-378.216-88.051-129.332-195.1-232.184-318.174-305.7C4349.063 60.94 4181.99 12.563 4002.552 2.166Q3965.137 0 3927.417 0z" transform="translate(0 -.002)"/>
                </g>
                <g id="그룹_27075" data-name="그룹 27075" transform="translate(71.13 286.781)">
                    <path id="패스_2166" data-name="패스 2166" class="cls-4" d="M3885.949 0a1371.394 1371.394 0 0 0-419.158 65.868c-97.119 31.645-192.957 73.365-292.994 127.55-82.559 44.714-167.673 97.646-267.858 166.576-74.15 50.963-148.664 105.32-220.723 157.888-109.808 80.1-223.354 162.932-341.93 238.626-135.038 86.014-284.293 168-456.288 250.655-216.398 104.518-446.471 198.172-665.357 270.837-204.056 67.746-410.757 122.138-614.362 161.665-211.7 41.1-416.017 65.285-607.279 71.89l.108 3.116c191.424-6.609 395.907-30.815 607.766-71.945 203.735-39.551 410.567-93.978 614.751-161.766 219.011-72.712 449.216-166.417 665.727-270.989 172.105-82.7 321.466-164.753 456.612-250.836 118.659-75.746 232.245-158.6 342.091-238.737 72.043-52.554 146.539-106.9 220.652-157.837 100.092-68.865 185.116-121.741 267.577-166.4 99.869-54.093 195.537-95.741 292.471-127.325 159.394-51.554 331.634-73.441 498.1-63.3 86.3 5.26 169.945 19.114 248.621 41.178 82.355 23.1 159.283 55.221 228.643 95.482 121.79 71.151 228.764 170.625 317.947 295.652 73.137 102.534 136.585 225.662 188.583 365.964 40.514 109.688 72.475 222.354 103.385 331.31 39.178 138.109 79.691 280.919 138.364 421.005 16.117 38.108 38.473 87.726 68.581 133.6 25.027 38.34 52.548 69.76 84.134 96.054 110.827 91.66 284.493 120.769 442.445 74.165 141.444-42.3 256.434-137.45 367.639-229.466l11.38-9.412q46.125-38.13 92.223-76.1c200.542-165.341 407.912-336.309 599.246-513.931q23.687-22.068 47.37-44.231c136.075-127.193 276.779-258.717 414.614-354.579 45.906-31.951 81.125-53.538 110.834-67.942 30.62-14.848 54.748-24.409 74.133-32.092 40.146-15.911 56.762-22.5 50.965-47.881l-3.04.694c5.2 22.775-8.476 28.2-49.073 44.285-19.435 7.7-43.622 17.289-74.347 32.186-29.86 14.477-65.211 36.145-111.255 68.188-138.018 95.992-278.806 227.594-414.962 354.863q-23.681 22.135-47.365 44.224c-191.266 177.558-398.6 348.5-599.1 513.809q-46.083 37.993-92.229 76.105l-11.38 9.414c-110.964 91.817-225.707 186.76-366.541 228.88a535.518 535.518 0 0 1-232.21 15.479c-80.277-12.462-151.979-43.256-207.353-89.053-31.341-26.089-58.66-57.284-83.516-95.364-29.972-45.671-52.252-95.124-68.314-133.1-58.6-139.908-99.086-282.627-138.241-420.648-30.923-109.014-62.9-221.738-103.458-331.541C4900.479 662.171 4836.9 538.8 4763.6 436.041c-89.44-125.39-196.739-225.159-318.916-296.537-69.592-40.4-146.76-72.622-229.37-95.79C4136.427 21.59 4052.56 7.7 3966.044 2.427Q3926.188 0 3885.949 0z" transform="translate(0 -.002)"/>
                </g>
                <g id="그룹_27076" data-name="그룹 27076" transform="translate(76.603 308.706)">
                    <path id="패스_2167" data-name="패스 2167" class="cls-4" d="M3844.158 0c-137.731 0-277.437 20.922-408.635 61.518-96.366 30.06-191.575 69.822-291.072 121.555-82.466 42.88-167.336 93.587-267.089 159.574-77.338 51.106-155.087 105.836-230.277 158.763-106.491 74.962-216.608 152.477-331.09 223.82-133.413 82.947-281.476 163.184-452.646 245.293-217.767 105.024-444.9 198.678-656.851 270.841-203.522 69.293-407.887 124.742-607.415 164.809-210.81 42.334-412.37 66.638-599.082 72.242l.093 3.117c186.888-5.608 388.623-29.932 599.6-72.3 199.66-40.1 404.157-95.58 607.808-164.917 212.066-72.2 439.321-165.906 657.2-270.982 171.27-82.159 319.43-162.448 452.943-245.457 114.558-71.391 224.71-148.93 331.236-223.917 75.171-52.914 152.9-107.63 230.2-158.711 99.659-65.927 184.439-116.581 266.809-159.409 99.33-51.649 194.372-91.342 290.557-121.344 158.052-48.9 328.484-69.192 492.884-58.669 85.3 5.459 168.054 19.189 245.969 40.807 81.516 22.617 157.827 53.92 226.814 93.037 120.9 69.031 228.13 165.436 318.7 286.535 75.052 100.347 138.769 216.3 194.794 354.471 43.2 106.912 78.183 216.809 112.011 323.088 42.461 133.39 86.367 271.321 147.374 406.7 16.875 37.085 40.152 85.343 70.621 129.762 25.433 37.282 53.092 67.852 84.555 93.447 55.787 45.078 127.409 75.507 207.121 88a538.179 538.179 0 0 0 230.992-14.45c138.859-40.646 252.33-132.848 362.062-222.014l13.723-11.143c42.3-34.322 85.3-69.036 126.885-102.611 192.2-155.16 390.939-315.6 575.295-481.88q19.269-17.442 38.548-34.949c142.043-128.875 288.922-262.139 433.614-355.415 47.066-30.36 83.172-50.384 113.632-63.015 40.317-16.723 70.07-24.4 89.758-29.473 19.022-4.905 29.5-7.609 32.6-14.11 1.688-3.545 1.109-8.027-1.874-14.535l-2.836 1.3c2.562 5.591 3.146 9.26 1.893 11.895-2.469 5.187-13.042 7.912-30.558 12.43-19.774 5.1-49.655 12.8-90.178 29.612-30.635 12.7-66.9 32.81-114.124 63.275-144.912 93.425-291.887 226.776-434.022 355.736q-19.281 17.491-38.544 34.944c-184.289 166.217-383 326.633-575.162 481.768-41.589 33.575-84.595 68.29-126.895 102.613l-13.721 11.146c-109.493 88.972-222.714 180.973-360.967 221.439-154.417 44.551-325.278 15.905-435.279-72.978-31.22-25.4-58.68-55.751-83.943-92.785-30.335-44.223-53.533-92.324-70.356-129.287-60.928-135.214-104.807-273.058-147.24-406.362-33.848-106.335-68.849-216.292-112.092-323.314-56.129-138.427-119.975-254.6-195.187-355.169-90.826-121.441-198.375-218.131-319.653-287.378-69.215-39.246-145.763-70.645-227.524-93.331-78.121-21.675-161.09-35.442-246.6-40.917Q3887.069 0 3844.158 0z" transform="translate(0 -.002)"/>
                </g>
                <g id="그룹_27077" data-name="그룹 27077" transform="translate(82.077 330.605)">
                    <path id="패스_2168" data-name="패스 2168" class="cls-4" d="M3802.009 0c-133.933 0-269.809 19.431-397.754 57.2-95.619 28.474-190.2 66.275-289.149 115.561-82.388 41.039-167.013 89.518-266.319 152.571-80.938 51.33-162.34 106.559-241.062 159.97-102.77 69.728-209.039 141.828-319.021 208.681-131.57 79.778-278.442 158.26-449.006 239.93-222.95 107.36-441.083 198.484-648.343 270.844-202.937 70.848-404.963 127.355-600.472 167.952-209.738 43.55-408.54 67.976-590.883 72.591l.079 3.119c182.529-4.625 381.518-29.07 591.438-72.66 195.641-40.624 397.8-97.168 600.865-168.061 207.373-72.4 425.615-163.568 648.667-270.977 170.654-81.714 317.614-160.243 449.275-240.076 110.049-66.894 216.35-139.018 319.152-208.765 78.7-53.4 160.082-108.611 240.982-159.918 99.214-62.993 183.749-111.423 266.038-152.413 98.787-49.206 193.2-86.943 288.646-115.362 156.708-46.254 325.346-64.941 487.672-54.041 84.3 5.661 166.166 19.267 243.319 40.437 80.673 22.14 156.369 52.619 224.984 90.6C4580.76 259.636 4751 462.57 4881.574 757.573c45.952 104.186 84.02 211.368 120.832 315.024 45.681 128.622 92.916 261.623 156.187 392.248 18.741 38.307 42.027 83.22 72.664 125.92 25.838 36.223 53.633 65.939 84.968 90.837 55.828 44.043 126.856 73.91 205.41 86.377a534.726 534.726 0 0 0 228.377-13.441c135.94-38.609 247.547-127.683 355.48-213.826q8.544-6.819 17.064-13.61c52.592-41.879 106.09-84.143 157.829-125.015 185.156-146.272 376.613-297.524 555.066-453.929q15.494-13.631 31-27.3c147.574-130.022 300.172-264.471 451.342-354.62 48.226-28.78 85.221-47.24 116.423-58.1 52.74-18.344 86.312-20.753 104.345-22.047 10.312-.741 15.017-1.078 16.276-4.042 1.042-2.441-.824-5.354-4.871-10.212l-2.4 2c4.035 4.844 4.62 6.476 4.4 6.993-.516 1.21-6.886 1.667-13.629 2.153-18.18 1.3-52.018 3.733-105.147 22.213-31.409 10.927-68.586 29.471-117 58.362-151.42 90.3-304.126 224.841-451.808 354.957q-15.508 13.662-31 27.295c-178.389 156.352-369.817 307.578-554.942 453.825-51.739 40.875-105.242 83.141-157.837 125.022q-8.52 6.79-17.069 13.614c-107.689 85.95-219.048 174.826-354.384 213.263a531.645 531.645 0 0 1-227.039 13.361c-78.026-12.385-148.555-42.034-203.96-85.742-31.1-24.712-58.7-54.22-84.368-90.206-30.5-42.517-53.715-87.285-72.4-125.471C5098.2 1333.011 5051 1200.1 5005.345 1071.553c-36.83-103.709-74.917-210.949-120.919-315.241-130.852-295.646-301.533-499.059-521.794-621.86-68.835-38.1-144.762-68.672-225.673-90.875C4059.6 22.35 3977.532 8.709 3893.023 3.033Q3847.787 0 3802.009 0z" transform="translate(0 -.002)"/>
                </g>
                <g id="그룹_27078" data-name="그룹 27078" transform="translate(87.55 352.467)">
                    <path id="패스_2169" data-name="패스 2169" class="cls-4" d="M3759.446 0c-130.014 0-261.908 17.95-386.458 52.908-221.239 62.7-411.627 169.285-552.775 255.139-85.033 51.657-170.587 107.538-253.327 161.578-98.56 64.376-200.479 130.945-305.473 193.14-129.425 76.466-275.1 153.194-445.365 234.567-225.878 108.6-441.148 199.727-639.837 270.849C749.835 1320.806 343.107 1405.194 0 1412.226l.063 3.119c178.326-3.654 374.569-28.223 583.275-73.023 191.677-41.143 391.5-98.746 593.923-171.2 198.791-71.158 414.164-162.326 640.135-270.972 170.34-81.41 316.1-158.18 445.6-234.7 105.055-62.23 207-128.817 305.59-193.212 82.718-54.027 168.251-109.894 253.24-161.525 268.386-163.246 435.978-221.921 552-254.8C3529.191 12.308 3696.025-4.776 3856.295 6.5c83.3 5.863 164.272 19.344 240.667 40.071 79.832 21.657 154.912 51.315 223.156 88.149 119.132 64.8 226.868 155.067 320.21 268.3 76.774 93.133 144.554 201.564 207.212 331.488 48.568 101.053 89.549 205.147 129.179 305.814 48.926 124.281 99.519 252.793 165.477 378.934 18.112 34.64 42.971 79.82 74.7 122.076 26.253 35.169 54.184 64.029 85.385 88.227 55.826 42.968 126.249 72.237 203.664 84.644a534.391 534.391 0 0 0 225.79-12.322c133.605-37.045 243.841-123.417 350.444-206.948l18.866-14.768c61.894-48.357 124.9-97.043 185.831-144.125 179.137-138.422 364.374-281.557 537.775-429.275q12.226-10.45 24.459-20.927c152.756-130.746 310.715-265.945 468.063-352.547 49.412-27.216 87.293-44.111 119.217-53.173 73.9-20.977 110.057-10.069 115.8-7.989 1.876.832 2.245.475 2.649.094l.284-1.906a2.333 2.333 0 0 0-.91-.658l.017-.053a47.624 47.624 0 0 1-6.957-3.934l-.98 1.522a125.362 125.362 0 0 0-20.729-2.68c-17.616-.909-47.522.539-90.028 12.6-32.155 9.13-70.245 26.11-119.867 53.441-157.63 86.759-315.712 222.063-468.587 352.914q-12.235 10.471-24.454 20.921c-173.342 147.667-358.55 290.78-537.66 429.178-60.934 47.086-123.943 95.773-185.842 144.136q-9.423 7.362-18.871 14.772c-106.362 83.34-216.347 169.517-349.354 206.4a531.3 531.3 0 0 1-224.462 12.249c-76.9-12.326-146.84-41.386-202.251-84.033-30.972-24.021-58.709-52.684-84.793-87.629-31.6-42.081-56.379-87.116-74.438-121.651-65.878-126-116.44-254.428-165.338-378.633-39.649-100.719-80.651-204.867-129.268-306.025-62.769-130.154-130.682-238.793-207.616-332.122-93.6-113.542-201.642-204.063-321.131-269.055-68.46-36.95-143.763-66.7-223.826-88.418-76.588-20.78-157.762-34.3-241.263-40.171C3824.378 1.124 3791.965 0 3759.446 0z" transform="translate(0 -.003)"/>
                </g>
                <g id="그룹_27079" data-name="그룹 27079" transform="translate(93.023 374.289)">
                    <path id="패스_2170" data-name="패스 2170" class="cls-4" d="M3716.417 0a1468.347 1468.347 0 0 0-374.7 48.663c-220.257 59.189-409.673 160.5-550.082 242.142-89.706 52.095-180 108.8-267.328 163.644-93.779 58.895-190.751 119.8-290.187 177.141-126.812 72.941-271.303 147.916-441.72 229.21-233.174 111.923-439.683 200.518-631.332 270.851C863.13 1240.987 419.846 1372.688 0 1379.188l.048 3.12C420.333 1375.8 863.977 1244 1162.142 1134.576c191.744-70.366 398.343-159 631.6-270.965 170.488-81.326 315.046-156.336 441.935-229.316 99.488-57.376 196.485-118.292 290.29-177.2 87.3-54.827 177.578-111.521 267.237-163.588 140.244-81.549 329.421-182.735 549.319-241.825 154-40.956 319.03-56.442 477.249-44.789 82.3 6.061 162.379 19.419 238.017 39.7 78.985 21.179 153.452 50.015 221.326 85.706 118.25 62.685 226.239 149.887 320.967 259.179 77.614 89.548 147.424 194.221 213.422 320 51.468 98.415 95.666 199.9 138.412 298.034 52.012 119.423 105.8 242.912 173.88 364.192 18.859 33.6 44.626 77.4 76.744 118.234 26.665 34.113 54.731 62.119 85.8 85.618 55.831 41.9 125.65 70.565 201.917 82.912 74.374 12.043 151.556 8.167 223.2-11.2 131.385-35.524 240.319-119.3 345.667-200.317q10.224-7.863 20.41-15.678c70.386-53.947 142.088-108.123 211.43-160.516 173.956-131.433 353.835-267.34 522.89-407.34l18.778-15.615c157.644-131.12 320.655-266.7 483.919-349.418 50.6-25.654 89.366-40.987 122.008-48.257 72.951-16.245 108.928-.8 113.782 6.667.411.631.511 1.113.4 1.265-.311.419-2.492 1.252-8.221-.393l-.862 3c5.872 1.681 9.986 1.416 11.59-.753.455-.614 1.335-2.314-.294-4.82-6.062-9.325-43.967-24.285-117.073-8.011-32.9 7.328-71.907 22.746-122.741 48.52-163.577 82.873-326.727 218.57-484.505 349.8l-18.773 15.613c-169 139.953-348.849 275.84-522.778 407.251-69.348 52.4-141.054 106.575-211.449 160.528q-10.191 7.812-20.411 15.682c-105.106 80.831-213.792 164.415-344.58 199.777-71.223 19.256-147.949 23.109-221.892 11.137-75.77-12.268-145.114-40.735-200.537-82.325-30.847-23.328-58.725-51.151-85.225-85.051-31.987-40.673-57.674-84.339-76.478-117.836-68-121.142-121.757-244.557-173.74-363.91-42.766-98.189-86.988-199.722-138.507-298.238-66.112-125.993-136.055-230.86-213.828-320.591-94.982-109.584-203.272-197.026-321.869-259.9-68.078-35.798-142.758-64.72-221.968-85.959-75.827-20.333-156.1-33.723-238.6-39.8C3785.735 1.258 3751.144 0 3716.417 0z" transform="translate(0 -.003)"/>
                </g>
                <g id="그룹_27080" data-name="그룹 27080" transform="translate(98.498 396.065)">
                    <path id="패스_2171" data-name="패스 2171" class="cls-4" d="M3672.851 0a1499.448 1499.448 0 0 0-362.4 44.462C3139.3 87.9 2970.483 158.576 2763.066 273.612c-95.094 52.667-190.867 110.43-283.487 166.29-88.285 53.245-179.576 108.3-272.745 160.563-125.212 70.029-264.418 141.158-438.085 223.84-165.229 79.173-385.334 181.508-622.827 270.856C847.66 1207.371 406.738 1342.009 0 1346.2l.031 3.119c407.2-4.192 848.493-138.936 1146.991-251.234 237.6-89.389 457.79-191.762 623.07-270.959 173.727-82.712 312.99-153.868 438.266-223.935 93.214-52.283 184.526-107.355 272.83-160.614 92.6-55.845 188.345-113.592 283.39-166.233 207.172-114.9 375.761-185.482 546.64-228.849C3463.85 9.188 3627.081-4.7 3783.254 7.33c81.3 6.263 160.485 19.5 235.365 39.332 78.143 20.7 151.994 48.714 219.5 83.263 117.37 60.577 225.614 144.71 321.724 250.061 78.441 85.982 150.283 186.895 219.638 308.506 54.475 95.847 102 194.79 147.964 290.473 55 114.5 111.867 232.888 181.957 349.232 19.614 32.552 46.291 74.975 78.783 114.39 27.084 33.06 55.286 60.213 86.217 83.008 55.846 40.826 125.062 68.895 200.169 81.178 73.582 12.035 149.868 8.547 220.618-10.084 129.281-34.046 236.994-115.329 341.161-193.936q10.858-8.191 21.679-16.338c78.194-58.776 157.909-117.654 235-174.593 169.477-125.177 344.726-254.616 510.033-387.716l13.785-11.144c162.3-131.213 330.119-266.893 499.09-345.448 51.094-23.772 91.916-37.95 124.8-43.344 69.643-11.422 102.815 6.264 110.626 17.211 2.307 3.232 2.914 6.247 1.709 8.484-1.471 2.732-5.589 4.187-11.258 3.964l-.116 3.117c7.02.25 12.034-1.729 14.12-5.6 1.8-3.34 1.119-7.522-1.916-11.775-8.8-12.343-42.651-30.125-113.669-18.477-33.634 5.515-73.548 19.367-125.613 43.594C7145.3 543.4 6977.328 679.2 6814.885 810.535l-13.785 11.141c-165.254 133.059-340.475 262.479-509.929 387.636-77.095 56.943-156.815 115.825-235.019 174.609q-10.829 8.138-21.684 16.343c-103.928 78.425-211.393 159.52-340.077 193.408-70.33 18.521-146.167 21.987-219.321 10.023-74.626-12.206-143.379-40.081-198.829-80.614-30.711-22.635-58.73-49.614-85.65-82.474-32.366-39.262-58.966-81.559-78.522-114.022-70.012-116.215-126.851-234.541-181.816-348.969-45.986-95.732-93.537-194.724-148.065-290.667-69.47-121.815-141.447-222.912-220.042-309.065-96.359-105.623-204.9-189.982-322.6-250.734-67.71-34.65-141.77-62.75-220.126-83.504-75.065-19.884-154.441-33.146-235.926-39.427C3746.927 1.4 3709.963 0 3672.851 0z" transform="translate(0 -.003)"/>
                </g>
                <g id="그룹_27081" data-name="그룹 27081" transform="translate(103.971 417.794)">
                    <path id="패스_2172" data-name="패스 2172" class="cls-4" d="M3628.667 0a1533.667 1533.667 0 0 0-349.479 40.313c-170.5 40.678-338.488 107.341-544.688 216.15-101.336 53.395-198.906 109.838-302.2 169.6-81.946 47.406-166.683 96.425-252.748 143.323-122.319 66.456-256.308 133.839-434.447 218.48-190.264 91.006-396.371 186.806-614.317 270.857-200.055 77.15-392.742 137.872-572.706 180.48-204.1 48.318-391.865 73.231-558.082 74.047l.015 3.12c166.454-.817 354.454-25.76 558.778-74.135 180.1-42.639 372.923-103.4 573.109-180.605 218.047-84.089 424.22-179.919 614.539-270.951 178.188-84.665 312.222-152.071 434.594-218.556 86.1-46.918 170.856-95.948 252.818-143.362 103.271-59.743 200.817-116.173 302.1-169.538 205.964-108.684 373.726-175.26 543.957-215.873C3431.167 7.7 3592.59-4.592 3746.736 7.818c80.291 6.461 158.589 19.57 232.714 38.961 77.3 20.221 150.529 47.414 217.67 80.82 116.493 58.473 224.994 139.54 322.484 240.942 79.253 82.437 153.13 179.593 225.85 297.019 57.627 93.365 108.621 189.868 157.935 283.191 57.849 109.475 117.666 222.676 189.619 333.987 21.634 33.467 48.154 72.772 80.823 110.55 27.5 32 55.836 58.3 86.628 80.4 112.928 80.352 272.5 107.354 416.455 70.479 127.278-32.6 233.842-111.484 336.9-187.768q11.376-8.42 22.708-16.784c85.437-62.967 172.6-125.891 256.89-186.74 165.583-119.535 336.8-243.139 498.857-370.025l9.424-7.409c166.733-131.057 339.145-266.573 513.628-340.746 52.28-22.241 94.017-34.813 127.6-38.433 72.968-7.873 109.293 16.092 111.778 35.62 1.079 8.455-4.863 14.677-15.5 16.239l.455 3.087c12.315-1.809 19.435-9.549 18.14-19.719-2.3-18.093-31.012-39.857-87.907-39.86a254.582 254.582 0 0 0-27.3 1.533c-33.891 3.653-75.918 16.3-128.485 38.663-174.865 74.333-347.442 209.981-514.336 341.164l-9.421 7.406c-162.005 126.847-333.2 250.434-498.756 369.951-84.3 60.855-171.466 123.783-256.915 186.758q-11.341 8.357-22.713 16.788c-102.814 76.105-209.129 154.8-335.816 187.253-143.088 36.656-301.674 9.835-413.867-70-30.583-21.945-58.742-48.08-86.079-79.895-32.545-37.637-58.99-76.831-80.565-110.206-71.878-111.2-131.665-224.337-189.481-333.751-49.339-93.368-100.358-189.917-158.042-283.375-72.836-117.617-146.843-214.941-226.253-297.541-97.736-101.659-206.523-182.935-323.338-241.57-67.335-33.5-140.772-60.771-218.275-81.046-74.3-19.439-152.78-32.577-233.253-39.055C3707.927 1.563 3668.376 0 3628.667 0z" transform="translate(0 -.002)"/>
                </g>
                <g id="그룹_27082" data-name="그룹 27082" transform="translate(109.444 439.46)">
                    <path id="패스_2173" data-name="패스 2173" class="cls-4" d="M3583.776 0a1572.411 1572.411 0 0 0-335.853 36.223c-169.911 37.9-337.068 100.556-542 203.151-108.648 54.309-213.326 112.33-324.15 173.758-74.538 41.315-151.615 84.037-229.518 125.229-147.056 77.52-300.3 151.235-430.808 213.118l-2.186 1.043c-169.293 80.826-379.985 181.414-603.627 269.819-199.207 78.745-389.56 140.518-565.766 183.6-201.977 49.383-386.63 74.424-548.816 74.424H0v3.12h1.052c162.442 0 347.328-25.068 549.558-74.515 176.345-43.116 366.833-104.933 566.173-183.731 223.744-88.445 434.489-189.058 603.825-269.9l2.182-1.042c130.534-61.9 283.815-135.627 430.923-213.177 77.934-41.206 155.024-83.936 229.576-125.258 110.793-61.412 215.442-119.416 324.033-173.7C2912.015 139.69 3078.95 77.116 3248.6 39.27c149.877-33 309.5-43.688 461.618-30.9 163.715 13.754 313.74 53.107 445.9 116.968 210.649 102.709 387.1 267.1 555.308 517.355 60.953 90.983 115.579 185.149 168.409 276.214 60.538 104.355 123.139 212.264 196.779 318.439 22.445 32.359 49.838 70.339 82.859 106.706 28.15 31.2 56.624 56.648 87.046 77.788 112.68 78.309 270.594 105.076 412.116 69.865 125.386-31.2 230.877-107.771 332.9-181.821q11.758-8.534 23.473-17.011c92.193-66.6 186.307-133 277.324-197.211 162.19-114.427 329.9-232.751 489.139-354.012l5.574-4.26c171-130.7 347.816-265.851 527.655-335.455 53.469-20.714 96.121-31.68 130.4-33.527 32.826-1.763 60.962 2.859 81.37 13.382 16.524 8.525 27.222 20.632 29.346 33.218 2.182 12.924-5.158 23.458-19.157 27.494l.864 3c15.413-4.441 23.8-16.612 21.371-31.008-2.291-13.565-13.587-26.493-31-35.472-20.9-10.777-49.6-15.525-82.965-13.724-34.609 1.864-77.573 12.9-131.355 33.733-180.254 69.764-357.252 205.05-528.423 335.884l-5.572 4.26c-159.19 121.216-326.879 239.525-489.046 353.933-91.021 64.218-185.145 130.622-277.351 197.233q-11.723 8.468-23.481 17.016c-101.776 73.874-207.018 150.264-331.815 181.317-140.68 35-297.623 8.413-409.583-69.4-30.223-21-58.521-46.3-86.512-77.321-32.9-36.234-60.225-74.116-82.608-106.39-73.572-106.072-136.14-213.924-196.647-318.226-52.852-91.108-107.506-185.319-168.516-276.39C4637.8 527.555 4561.763 434 4481.554 354.938c-100.5-99.066-206.506-175.087-324.072-232.411C4024.968 58.5 3874.575 19.043 3710.477 5.257 3668.7 1.747 3626.331 0 3583.776 0z" transform="translate(0 -.002)"/>
                </g>
                <g id="그룹_27083" data-name="그룹 27083" transform="translate(114.899 461.057)">
                    <path id="패스_2174" data-name="패스 2174" class="cls-4" d="M3538.067 0a1615.563 1615.563 0 0 0-321.389 32.2c-169.4 35.116-335.726 93.762-539.3 190.158-117.323 55.463-230.438 115.479-350.2 179.018-65.775 34.9-133.789 70.984-202.193 106.037-138.067 70.528-280.845 138.516-427.171 207.753q-25.726 12.259-52.755 25.183c-153.716 73.442-345.024 164.843-544.55 245.684-198.312 80.35-386.329 143.17-558.83 186.721-200.668 50.66-382.924 75.814-541.659 74.8l-.02 3.122c158.994 1.021 341.519-24.17 542.444-74.9 172.637-43.584 360.794-106.45 559.238-186.852 199.614-80.876 390.968-172.3 544.723-245.76q27.015-12.907 52.75-25.18c146.345-69.245 289.145-137.247 427.253-207.8 68.426-35.061 136.449-71.154 202.235-106.055 119.723-63.522 232.808-123.521 350.066-178.956 203.344-96.286 369.453-154.858 538.6-189.921 148.48-30.345 306.305-39.433 456.406-26.278 161.468 14.151 309.985 52.559 441.429 114.157 116.372 55.044 222.355 127.893 324 222.707 80.855 75.418 158.8 165.058 238.28 274.039 64.5 88.718 122.967 180.675 179.512 269.605 63.024 99.119 128.195 201.611 203.31 302.524 23.259 31.251 51.536 67.91 84.9 102.863 28.593 30.155 57.2 54.748 87.458 75.18 55.828 37.7 123.212 64 194.867 76.058 71.19 11.979 144.817 9.624 212.916-6.808 123.593-29.827 228.083-104.169 329.132-176.063q12.021-8.555 24-17.048c98.552-69.765 199.219-139.17 296.572-206.288 159.2-109.764 323.83-223.267 480.6-339.391l2.135-1.589c175.122-130.183 356.205-264.8 541.274-329.69 54.667-19.188 98.235-28.55 133.194-28.623h.517c67.92 0 103.793 28.23 109.226 56.271 3.376 17.434-5.591 33.162-22.848 40.069l1.158 2.9c18.712-7.487 28.428-24.584 24.752-43.558-5.676-29.3-42.6-58.8-112.292-58.8h-.521c-35.314.076-79.218 9.5-134.221 28.8-185.516 65.05-366.792 199.81-542.1 330.132l-2.134 1.586C6612.1 814.1 6447.5 927.589 6288.317 1037.341c-97.359 67.124-198.033 136.534-296.6 206.31q-11.988 8.483-24.007 17.052c-100.809 71.723-205.048 145.888-328.056 175.572-67.695 16.336-140.889 18.675-211.667 6.765-71.219-11.983-138.179-38.114-193.638-75.567-30.066-20.3-58.5-44.752-86.943-74.742-33.247-34.838-61.45-71.4-84.656-102.576-75.045-100.824-140.183-203.267-203.177-302.337C4803 798.847 4744.5 706.848 4679.948 618.05c-79.6-109.144-157.673-198.928-238.674-274.485-101.888-95.035-208.13-168.061-324.8-223.248-131.783-61.756-280.655-100.259-442.489-114.441C3629.218 1.952 3583.756 0 3538.067 0z" transform="translate(0 -.002)"/>
                </g>
                <g id="그룹_27084" data-name="그룹 27084" transform="translate(120.357 482.419)">
                    <path id="패스_2175" data-name="패스 2175" class="cls-4" d="M3490.259 0a1651.221 1651.221 0 0 0-304.829 28.42c-168.958 32.3-334.451 86.941-536.607 177.16-127.71 56.9-250.94 119.443-381.407 185.658-55.3 28.065-112.479 57.087-169.7 85.463-117.729 58.2-240.886 116.264-359.988 172.417q-31.748 14.97-63.545 29.975c-30.07 14.3-61.339 29.308-94.443 45.2-147.547 70.824-314.779 151.1-494.357 225.67C653.25 1129.411 288.057 1218.578.038 1214.978L0 1218.1c288.5 3.617 654.052-85.642 1086.578-265.253 179.657-74.6 346.929-154.9 494.511-225.74 33.1-15.89 64.369-30.9 94.429-45.193q31.782-15 63.539-29.972c119.115-56.16 242.284-114.232 360.041-172.444 57.236-28.383 114.424-57.407 169.729-85.476 130.43-66.2 253.627-128.722 381.267-185.592C2852.022 118.312 3017.3 63.741 3186.01 31.484c310.171-58.4 633.893-25.711 888.152 89.694 115.5 52.927 221.731 122.793 324.764 213.591 81.65 71.953 161.625 157.834 244.5 262.55 68.3 86.579 130.877 176.474 191.391 263.408 65.258 93.745 132.734 190.682 209.062 286.2 24.086 30.144 53.252 65.481 86.931 99.019 29.045 29.111 57.789 52.849 87.87 72.569 55.9 36.642 122.675 62.342 193.117 74.32 70.423 11.976 143.154 10.008 210.328-5.686 121.9-28.481 225.465-100.676 325.616-170.493q12.164-8.479 24.281-16.9c104.555-72.5 211.4-144.486 314.728-214.1 156.6-105.506 318.526-214.6 473.162-326.034 178.671-129.2 363.424-262.794 553.587-322.846 55.87-17.661 100.353-25.418 136-23.722 31.469 1.5 58.4 9.258 77.877 22.434 16.635 11.251 27.649 26.39 31.014 42.626 4.624 22.305-5.828 43.314-26.625 53.525l1.375 2.8c22.115-10.858 33.227-33.214 28.3-56.957-3.529-17.037-15.008-32.869-32.32-44.579-19.953-13.5-47.435-21.437-79.476-22.964-36.01-1.718-80.858 6.089-137.087 23.862-190.641 60.2-375.6 193.948-554.471 323.29-154.6 111.4-316.5 220.484-473.08 325.977-103.337 69.622-210.191 141.615-314.762 214.128q-12.126 8.408-24.289 16.9c-99.911 69.649-203.223 141.668-324.542 170.015-66.772 15.6-139.077 17.556-209.093 5.65s-136.391-37.446-191.931-73.854c-29.9-19.6-58.48-43.207-87.376-72.167-33.572-33.431-62.666-68.684-86.7-98.761-76.261-95.435-143.708-192.329-208.938-286.033-60.541-86.972-123.142-176.9-191.5-263.561-82.995-104.865-163.095-190.878-244.886-262.956-103.264-91-209.748-161.03-325.534-214.088C3903.539 40.309 3699.959 0 3490.259 0z" transform="translate(0 -.002)"/>
                </g>
                <g id="그룹_27085" data-name="그룹 27085" transform="translate(125.814 503.992)">
                    <path id="패스_2176" data-name="패스 2176" class="cls-4" d="M3443.533 0a1717.772 1717.772 0 0 0-289.351 24.42c-166.329 29.08-335.982 81.242-533.909 164.17-140.381 58.714-275.966 124.526-419.511 194.2-42.54 20.648-86.526 42-130.317 62.984-83.083 39.687-169.187 79.842-252.456 118.677-54.852 25.581-111.572 52.033-167.44 78.352-40.373 19.157-83.522 40.029-129.2 62.127-135.163 65.385-288.36 139.49-451.091 208.748-196.379 83.577-379.731 148.493-544.963 192.943-196.958 52.979-373.672 78.425-525.237 75.57L0 1185.309c151.846 2.853 328.864-22.615 526.1-75.674 165.372-44.488 348.862-109.45 545.374-193.084 162.8-69.287 316.033-143.411 451.227-208.81 45.678-22.1 88.822-42.966 129.182-62.116 55.857-26.316 112.574-52.766 167.423-78.345 83.276-38.837 169.387-79 252.484-118.69 43.8-20.991 87.79-42.343 130.332-62.992 143.505-69.656 279.051-135.45 419.354-194.132 197.711-82.834 367.149-134.937 533.239-163.966C3300.36 2.457 3454.583-3.425 3600.7 10.476c156.943 14.935 302.448 51.45 432.478 108.532 114.637 50.815 221.121 117.7 325.528 204.471 83.594 69.476 163.261 149.252 250.714 251.059 72.452 84.605 139.466 172.615 204.274 257.729 67.163 88.206 136.614 179.416 213.811 269.357 24.921 29.037 54.981 63.051 88.968 95.177 29.508 28.07 58.386 50.956 88.279 69.958 114.946 73.065 264.145 98.5 399.108 68.021 120.313-27.166 223.022-97.287 322.349-165.1q12.182-8.315 24.317-16.57c110.257-74.869 222.975-149.082 331.981-220.852 154.3-101.589 313.849-206.637 466.621-313.743 181.223-127.481 368.612-259.3 563.767-314.412 57.078-16.135 102.474-22.29 138.8-18.822 69.674 6.658 101.571 42.217 108.188 73.277 5.807 27.25-6.176 53.767-30.526 67.553l1.537 2.714c25.56-14.471 38.136-42.308 32.041-70.917-6.85-32.14-39.589-68.913-110.943-75.731-36.714-3.5-82.487 2.683-139.945 18.924-195.662 55.256-383.275 187.233-564.71 314.861-152.734 107.08-312.265 212.114-466.544 313.691-109.015 71.776-221.743 146-332.018 220.875q-12.144 8.248-24.322 16.576c-99.086 67.648-201.547 137.6-321.278 164.632-65.851 14.869-137.264 16.435-206.521 4.531-68.808-11.828-134.587-36.773-190.226-72.141-29.721-18.894-58.441-41.656-87.806-69.589-33.887-32.031-63.877-65.969-88.747-94.946-77.138-89.87-146.56-181.044-213.7-269.215-64.834-85.148-131.877-173.194-204.388-257.869-87.566-101.944-167.351-181.837-251.087-251.427-104.631-86.959-211.353-153.991-326.261-204.927C3904.1 58.937 3758.273 22.337 3601 7.37 3549.285 2.449 3496.538 0 3443.533 0z" transform="translate(0 -.002)"/>
                </g>
                <g id="그룹_27086" data-name="그룹 27086" transform="translate(131.269 525.119)">
                    <path id="패스_2177" data-name="패스 2177" class="cls-4" d="M3392.991 0a1760.471 1760.471 0 0 0-270.052 20.872c-166.07 26.251-334.866 74.287-531.213 151.169-156.091 61.011-307.01 131.114-466.793 205.335q-40.7 18.908-81.754 37.916c-47.184 21.746-95.654 43.907-142.529 65.34-89.672 41-182.4 83.4-273.729 126.328-48.665 23.037-101.991 49.094-158.448 76.682-124.252 60.714-265.081 129.528-413.343 194.2-195.346 85.204-376.366 151.163-538.03 196.048-195.009 54.139-368.954 79.69-517.021 75.957L0 1152.965c148.373 3.757 322.628-21.848 517.93-76.07 161.81-44.924 342.97-110.932 538.446-196.195 148.324-64.695 289.186-133.525 413.465-194.253 56.448-27.584 109.766-53.636 158.408-76.665 91.314-42.919 184.031-85.314 273.7-126.313 46.875-21.432 95.348-43.594 142.539-65.341q41.07-18.99 81.761-37.92c159.736-74.2 310.615-144.285 466.615-205.259 196.132-76.8 364.721-124.779 530.561-150.992A1750.435 1750.435 0 0 1 3564.2 11.563c154.658 15.323 298.66 50.89 428 105.72 113.787 48.708 220.52 112.609 326.292 195.352 84.416 66.038 166.059 142.162 256.932 239.572 77.03 82.814 148.9 169.151 218.413 252.645 68.659 82.473 139.658 167.754 217.3 251.916 25.772 27.934 56.737 60.631 91 91.333 29.687 26.771 58.7 48.8 88.688 67.347 115.614 70.864 263.192 96.062 394.772 67.407 118.819-25.874 220.75-93.993 319.327-159.87q12.074-8.067 24.1-16.078c115.7-76.9 234.017-153.031 348.436-226.653 152.273-97.976 309.73-199.29 460.881-302.4 86.377-59.115 184.276-126.116 281.991-181.786 107.67-61.341 203.168-101.966 291.953-124.2 58.286-14.608 104.6-19.158 141.608-13.921 58.312 8.26 98.551 38.586 107.64 81.123a76.934 76.934 0 0 1-34.568 81.946l1.663 2.641a80.025 80.025 0 0 0 35.954-85.239c-9.374-43.872-50.591-75.108-110.251-83.56-37.413-5.3-84.124-.725-142.805 13.985-89.062 22.3-184.818 63.026-292.739 124.511-97.824 55.732-195.781 122.771-282.207 181.919-151.114 103.085-308.553 204.386-460.809 302.351-114.429 73.628-232.755 149.761-348.474 226.68q-12.039 8-24.112 16.082c-98.334 65.716-200.017 133.667-318.256 159.416-130.813 28.485-277.531 3.434-392.474-67.016-29.823-18.443-58.686-40.363-88.238-67.01-34.17-30.618-65.072-63.247-90.794-91.13-77.59-84.1-148.561-169.353-217.2-251.8-69.536-83.526-141.438-169.9-218.526-252.776-90.989-97.53-172.745-173.762-257.294-239.9-105.987-82.911-212.948-146.948-326.99-195.766C3863.79 59.458 3719.482 23.812 3564.51 8.46Q3479.11 0 3392.991 0z" transform="translate(0 -.002)"/>
                </g>
                <g id="그룹_27087" data-name="그룹 27087" transform="translate(136.724 546.286)">
                    <path id="패스_2178" data-name="패스 2178" class="cls-4" d="M3342.562 0A1831.515 1831.515 0 0 0 3091.7 17.287c-165.916 23.4-333.854 67.3-528.516 138.172-176.069 63.981-346.517 139.9-526.975 220.278l-49.735 22.1c-125.558 55.707-255.392 113.313-383.182 173.239-55.355 26.143-117.459 56.854-183.206 89.37-114.56 56.654-244.4 120.866-380.08 181.515-197 88.06-370.727 153.2-531.1 199.148-193 55.295-364.192 80.987-508.8 76.352l-.1 3.117c144.927 4.645 316.441-21.087 509.757-76.47 160.521-45.988 334.381-111.18 531.519-199.3 135.731-60.673 265.6-124.9 380.189-181.566 65.736-32.509 127.825-63.214 183.151-89.345 127.756-59.909 257.576-117.506 383.12-173.209l49.737-22.1c180.406-80.356 350.807-156.254 526.772-220.2C2758.7 87.6 2926.436 43.744 3092.126 20.377a1820.273 1820.273 0 0 1 435.574-7.763c152.358 15.7 294.854 50.324 423.526 102.9 259.193 106.959 451.572 277.6 590.214 414.317 82.159 81.253 159.443 166.177 234.184 248.3 69.62 76.5 141.61 155.608 219.158 233.735 27.976 28.187 58.61 58.293 93.037 87.494 30.149 25.731 59.294 46.908 89.1 64.735 56.373 33.427 121.353 57.293 187.923 69.021 68.2 12.015 138.222 11.244 202.51-2.227 117.43-24.608 218.668-90.8 316.571-154.809q11.832-7.737 23.624-15.418c120.915-78.641 244.583-156.408 364.181-231.615 150.492-94.636 306.107-192.493 455.851-291.9 177.79-118.385 379.3-252.562 584.125-297.55 59.5-13.078 106.74-16.033 144.422-9.022 57.7 10.735 97.791 43.91 107.242 88.741a93.283 93.283 0 0 1-38.752 96.568l1.761 2.576a96.4 96.4 0 0 0 40.043-99.788c-9.721-46.109-50.741-80.189-109.725-91.164-38.1-7.089-85.743-4.13-145.658 9.044-205.4 45.113-407.167 179.464-585.184 298-149.71 99.38-305.311 197.227-455.787 291.853-119.606 75.214-243.284 152.986-364.22 231.64q-11.8 7.671-23.63 15.423c-97.66 63.852-198.649 129.879-315.5 154.368-63.907 13.391-133.523 14.152-201.331 2.207-66.2-11.663-130.821-35.395-186.867-68.628-29.647-17.735-58.653-38.812-88.673-64.433-34.339-29.126-64.917-59.178-92.842-87.313-77.5-78.081-149.468-157.161-219.067-233.637-74.768-82.158-152.081-167.112-234.3-248.425C4404.785 390.7 4212.109 219.8 3952.412 112.632 3823.459 59.939 3680.675 25.243 3528.02 9.51A1809.475 1809.475 0 0 0 3342.562 0z" transform="translate(0 -.002)"/>
                </g>
                <g id="그룹_27088" data-name="그룹 27088" transform="translate(142.179 567.238)">
                    <path id="패스_2179" data-name="패스 2179" class="cls-4" d="M3291.216 0a1923.238 1923.238 0 0 0-230.762 13.909c-165.871 20.51-332.954 60.291-525.82 125.18-183.548 61.643-363 137.056-545.99 215.383-131.145 55.955-271.462 116.6-408.988 180.942-60.76 28.623-130.475 63.57-204.281 100.567-105.887 53.079-225.9 113.24-350.5 170.322C593.081 1004.11 257.883 1095.371.122 1085.3L0 1088.415c258.263 10.108 593.925-81.26 1026.174-279.277 124.651-57.1 244.691-117.276 350.6-170.368 73.79-36.989 143.487-71.928 204.209-100.534 137.48-64.316 277.768-124.951 408.888-180.9 182.929-78.3 362.318-153.689 545.759-215.293 192.664-64.826 359.55-104.559 525.2-125.039 297.249-35.967 598.913-1.531 849.418 96.957 256.673 101.907 453.981 263.934 597.2 393.707 88.006 79.967 171.413 163.793 252.071 244.857 69.887 70.239 142.15 142.869 218.9 214.659 28.9 27.03 60.414 55.871 95.069 83.651 30.624 24.7 59.9 45.019 89.5 62.127a584.95 584.95 0 0 0 186.17 67.279c68.424 12.191 135.689 11.819 199.922-1.1 116.139-23.36 216.762-87.687 314.07-149.9q11.466-7.328 22.891-14.609c125.935-80.106 254.74-159.274 379.306-235.836 148.922-91.534 302.914-186.181 451.441-282.133 180.354-116.848 384.768-249.287 594.308-289.12 60.712-11.555 108.872-12.9 147.232-4.127 58.158 13.309 97.154 48.382 106.991 96.225a110.589 110.589 0 0 1-43.073 111.322l1.838 2.52a113.716 113.716 0 0 0 44.29-114.472c-10.094-49.09-49.952-85.041-109.351-98.635-38.789-8.878-87.367-7.533-148.511 4.1-210.129 39.955-414.812 172.57-595.412 289.574-148.495 95.93-302.474 190.57-451.381 282.094-124.572 76.567-253.388 155.742-379.343 235.856q-11.432 7.274-22.9 14.614c-97.066 62.056-197.438 126.222-313 149.468-63.853 12.844-130.725 13.208-198.763 1.088-64.905-11.562-128.933-34.7-185.161-66.913-29.457-17.023-58.605-37.255-89.106-61.855-34.577-27.716-66.042-56.508-94.893-83.5-76.71-71.751-148.955-144.361-218.823-214.579-80.685-81.094-164.118-164.947-252.185-244.968-143.414-129.95-341.007-292.2-598.148-394.3C3725.274 37.888 3510.974 0 3291.216 0z" transform="translate(0 -.002)"/>
                </g>
                <g id="그룹_27089" data-name="그룹 27089" transform="translate(147.634 588.122)">
                    <path id="패스_2180" data-name="패스 2180" class="cls-4" d="M3235.4 0a2006.142 2006.142 0 0 0-206.19 10.608c-165.94 17.572-332.164 53.219-523.12 112.181-191.139 58.907-382.617 134.89-544.713 201.447-163.793 67.041-288.808 121.191-405.351 175.578-65.1 30.589-141.441 69.429-222.262 110.549-98.078 49.9-209.243 106.463-324.015 160.346-194.679 91.4-363.873 158.565-517.254 205.339C303.633 1033.643 137.977 1059.6.144 1053.2L0 1056.317c138.2 6.414 304.2-19.585 493.4-77.286 153.524-46.816 322.854-114.037 517.669-205.5 114.817-53.9 226.005-110.475 324.1-160.388 80.8-41.109 157.117-79.939 222.171-110.5 116.492-54.364 241.466-108.5 405.214-175.516 162.031-66.53 353.426-142.483 544.448-201.354 190.758-58.9 356.794-94.508 522.526-112.059 292.644-30.254 590.87 4.823 839.74 98.774 254.378 96.965 456.511 250.322 604.188 373.094 94.806 79.027 181.249 158.456 272.769 242.549 69.226 63.608 140.81 129.384 215.834 194.446 29.855 25.891 62.281 53.479 97.1 79.809 31.132 23.677 60.542 43.147 89.917 59.519 118.586 65.547 257.727 89.443 381.75 65.564 114.956-22.134 215.05-84.665 311.846-145.139q10.959-6.847 21.878-13.647c130.77-81.319 264.513-161.672 393.851-239.381 147.55-88.649 300.125-180.318 447.613-273.048 182.949-115.335 390.306-246.06 604.49-280.692 61.931-10.025 111.011-9.771 150.049.771 57.929 15.648 96.88 53.42 106.869 103.635 9.38 47.157-9.273 96.673-47.523 126.147l1.9 2.471c39.181-30.192 58.287-80.916 48.677-129.227-10.227-51.419-50-90.069-109.115-106.037-39.47-10.662-88.979-10.941-151.361-.839-214.8 34.729-422.441 165.633-605.642 281.127-147.458 92.713-300.019 184.372-447.558 273.015-129.35 77.714-263.1 158.073-393.894 239.4q-10.923 6.794-21.883 13.65c-96.554 60.322-196.4 122.7-310.783 144.722-123.322 23.744-261.695-.034-379.647-65.229-29.238-16.3-58.53-35.686-89.546-59.278-34.748-26.275-67.126-53.824-96.941-79.68-74.989-65.033-146.555-130.792-215.767-194.387-91.548-84.119-178.018-163.573-272.884-242.648-147.86-122.921-350.262-276.475-605.074-373.608C3679.466 37.495 3459.555 0 3235.4 0z" transform="translate(0 -.002)"/>
                </g>
                <g id="그룹_27090" data-name="그룹 27090" transform="translate(153.088 608.629)">
                    <path id="패스_2181" data-name="패스 2181" class="cls-4" d="M3178.042 0q-90.062 0-180.072 7.68c-163.879 14.389-334.112 46.835-520.42 99.188-160.083 44.894-327.685 102.724-543.435 187.509-155.272 60.829-282.923 114.917-401.719 170.215-68.562 32.123-150.7 74.585-237.649 119.54-91.005 47.049-194.153 100.375-300.122 151.361-193.456 93.075-360.386 161.254-510.334 208.426-186.731 58.744-349.612 84.838-484.123 77.557L0 1024.592c134.885 7.3 298.14-18.84 485.226-77.7C635.318 899.678 802.387 831.446 995.977 738.3c106.008-51.005 209.177-104.342 300.2-151.4 86.926-44.94 169.033-87.389 237.536-119.485 118.733-55.267 246.326-109.331 401.54-170.137 215.649-84.745 383.16-142.545 543.138-187.412 186.122-52.3 356.167-84.709 519.848-99.081a2103.2 2103.2 0 0 1 419.952 6.124c145.316 16.819 283.295 48.6 410.108 94.466 110.58 40.373 218.315 92.342 329.358 158.875 88.15 52.817 177.7 114.336 281.82 193.6 104.9 80.067 201.189 160.856 303.134 246.391 65.474 54.936 133.178 111.744 203.094 168.082 32.387 25.9 64.335 51.192 99.135 75.971 31.645 22.655 61.19 41.27 90.32 56.909a627.832 627.832 0 0 0 182.66 63.795c66.966 12.206 132.49 12.593 194.75 1.155 113.887-20.924 213.547-81.73 309.923-140.534q10.3-6.285 20.568-12.533c135.45-82.3 273.951-163.65 407.888-242.321 146.354-85.962 297.688-174.853 444.294-264.566 105.924-64.981 201.641-122.65 300.438-170.346 115.283-55.66 218.07-89 314.232-101.918 63.147-8.5 113.151-6.64 152.868 5.67 57.85 17.932 96.8 58.4 106.868 111.016 9.965 52.1-10.481 107.449-52.092 141l1.959 2.428c42.494-34.263 63.376-90.792 53.2-144.012-10.289-53.789-50.021-95.125-109.007-113.41-40.156-12.446-90.6-14.337-154.208-5.782-96.494 12.966-199.588 46.4-315.173 102.2-98.926 47.76-194.716 105.473-300.711 170.5-146.581 89.7-297.9 178.58-444.242 264.536-133.949 78.677-272.458 160.033-407.928 242.345q-10.273 6.241-20.573 12.535c-96.137 58.655-195.542 119.308-308.863 140.128-61.889 11.371-127.035 10.982-193.625-1.155a624.657 624.657 0 0 1-181.748-63.477c-29.01-15.571-58.443-34.119-89.98-56.7-34.738-24.734-66.649-50-99-75.864-69.884-56.316-137.578-113.113-203.042-168.039-101.97-85.559-198.285-166.372-303.248-246.484-104.215-79.341-193.857-140.921-282.106-193.8-111.214-66.637-219.124-118.69-329.9-159.132-127.04-45.938-265.256-77.778-410.81-94.624A2093.843 2093.843 0 0 0 3178.042 0z" transform="translate(0 -.002)"/>
                </g>
                <g id="그룹_27091" data-name="그룹 27091" transform="translate(158.541 628.853)">
                    <path id="패스_2182" data-name="패스 2182" class="cls-4" d="M3116.914 0q-75.123 0-150.183 5.033c-164.22 11.385-333.568 39.58-517.723 86.192-163.725 41.36-341.066 98.137-542.158 173.574-148.879 55.683-279.093 109.607-398.086 164.85-71.273 33.3-154.473 77.045-250.814 127.7-84.564 44.466-180.416 94.866-278.452 143.206C787.309 795.324 622.642 864.51 476.083 912.07c-88.213 28.627-171.33 49.761-247.047 62.818C145.955 989.216 68.961 994.312.194 990.037L0 993.15c69.008 4.286 146.247-.82 229.566-15.188 75.861-13.082 159.126-34.253 247.479-62.925 146.7-47.606 311.508-116.849 503.831-211.681 98.075-48.356 193.943-98.768 278.524-143.244 96.3-50.638 179.475-94.371 250.68-127.632 118.916-55.209 249.058-109.1 397.863-164.757 200.983-75.4 378.215-132.14 541.827-173.472 183.974-46.566 353.14-74.731 517.17-86.1A2231.067 2231.067 0 0 1 3381.692 18.9c142.893 17.174 279.368 48.011 405.635 91.652 109.865 38.319 217.853 87.3 330.128 149.754C4206.789 310 4298.316 367.864 4405.5 442.42c115.207 80.324 221.587 161.814 334.211 248.089 61.38 47.019 124.846 95.637 189.646 143.863 33.579 24.811 66.578 48.994 101.167 72.13 32.186 21.643 61.864 39.407 90.727 54.3 121.258 62.1 253.742 84.943 373.063 64.334 113.328-20.017 213.012-79.353 309.415-136.735q8.938-5.317 17.846-10.61c140-83.074 283.109-165.261 421.505-244.743 145.3-83.445 295.539-169.731 441.391-256.6 107.283-64.047 204.289-120.856 305.05-167.492 117.2-54.243 221.809-85.759 319.806-96.348 64.373-6.961 115.3-3.507 155.689 10.567 30.4 10.592 55.263 26.984 73.91 48.718a147.961 147.961 0 0 1 33.058 69.682c10.445 57.03-11.837 118.2-56.758 155.847l2 2.391c45.768-38.352 68.467-100.685 57.826-158.8a151.083 151.083 0 0 0-33.761-71.153c-19.009-22.157-44.327-38.856-75.25-49.631-40.837-14.229-92.208-17.741-157.051-10.722-98.341 10.625-203.269 42.229-320.781 96.619-100.9 46.7-197.976 103.55-305.338 167.642-145.827 86.857-296.06 173.138-441.346 256.577-138.4 79.486-281.523 161.681-421.542 244.764q-8.913 5.288-17.851 10.614c-96.161 57.239-195.6 116.425-308.354 136.342-118.658 20.495-250.446-2.247-371.1-64.037-28.751-14.838-58.327-32.541-90.417-54.12-34.534-23.1-67.5-47.26-101.043-72.046-64.779-48.208-128.239-96.821-189.609-143.831-112.654-86.3-219.061-167.808-334.327-248.175-107.269-74.618-198.882-132.536-288.308-182.277-112.436-62.538-220.582-111.6-330.621-149.973-126.481-43.716-263.173-74.6-406.287-91.8A2224.071 2224.071 0 0 0 3116.914 0z" transform="translate(0 -.002)"/>
                </g>
                <g id="그룹_27092" data-name="그룹 27092" transform="translate(163.993 648.664)">
                    <path id="패스_2183" data-name="패스 2183" class="cls-4" d="M3051.241 0q-57.916 0-115.747 2.8c-164.734 8.317-333.2 32.26-515.025 73.2-170.332 38.273-347.256 90.491-540.88 159.635-145.717 51.89-274.746 104.061-394.453 159.486-73.349 34.159-160.809 80.97-262.079 135.174-78.673 42.107-167.844 89.834-258.684 135.741C695.282 802.025 302.563 980.346.22 959.012L0 962.124c67.407 4.755 143.163-.185 225.161-14.684 74.473-13.169 156.467-34.653 243.7-63.852C612.221 835.6 774.763 765.352 965.78 668.823c90.873-45.923 180.06-93.66 258.75-135.776 101.228-54.18 188.653-100.973 261.92-135.093 119.617-55.385 248.558-107.517 394.188-159.378 193.505-69.1 370.309-121.284 540.516-159.53 181.652-40.9 349.944-64.818 514.494-73.125a2384.344 2384.344 0 0 1 409.543 15.385c140.413 17.521 275.384 47.41 401.164 88.84 109.209 36.278 217.447 82.28 330.9 140.629 90.706 46.652 184.213 100.866 294.266 170.615 128.079 81.348 247.009 164.439 372.926 252.41 54.753 38.251 111.369 77.807 168.561 117.027 29.458 20.071 66.115 45.045 103.2 68.292 32.785 20.653 62.6 37.564 91.134 51.7 122.078 60.025 253.02 82.656 368.718 63.719 112.475-18.8 211.909-76.536 308.069-132.368q7.989-4.638 15.956-9.254c144.42-83.64 291.979-166.512 434.679-246.656 144.389-81.101 293.694-164.96 438.936-249.16 108.667-63.127 206.971-119.087 309.661-164.63 119.117-52.831 225.551-82.527 325.38-90.782 65.593-5.428 117.441-.373 158.513 15.463 58.9 22.716 96.96 67.393 107.16 125.8 10.817 61.938-13.332 128.931-61.523 170.675l2.043 2.357c49-42.446 73.555-110.576 62.553-173.568a161.415 161.415 0 0 0-33.81-74.929c-18.979-23.383-44.313-41.3-75.3-53.249-41.52-16.01-93.82-21.13-159.893-15.661-100.184 8.285-206.947 38.063-326.387 91.039-102.835 45.609-201.22 101.612-309.964 164.784-145.216 84.191-294.514 168.042-438.9 249.13-142.71 80.15-290.277 163.028-434.716 246.675q-7.967 4.615-15.957 9.257c-95.919 55.692-195.1 113.279-307.015 131.989-115.053 18.83-245.33-3.7-366.829-63.44-28.435-14.083-58.154-30.942-90.854-51.539-37.031-23.216-73.663-48.173-103.1-68.226-57.178-39.212-113.788-78.76-168.535-117.008-125.944-87.989-244.9-171.1-373.039-252.483C4263.055 348.955 4169.473 294.7 4078.68 248c-113.594-58.42-221.98-104.482-331.345-140.815-125.976-41.493-261.145-71.429-401.755-88.973A2380.547 2380.547 0 0 0 3051.241 0z" transform="translate(0 -.002)"/>
                </g>
                <g id="그룹_27093" data-name="그룹 27093" transform="translate(169.447 667.93)">
                    <path id="패스_2184" data-name="패스 2184" class="cls-4" d="M2980.039 0q-37.9 0-75.783 1.115c-165.406 5.172-332.99 24.865-512.324 60.206-173.423 34.111-354.972 83.131-539.6 145.7-143.208 48.4-271.047 98.817-390.821 154.124-74.88 34.754-166.1 84.486-271.716 142.069-76.829 41.889-156.275 85.2-240.543 128.849-192.171 99.529-347.742 168.695-489.593 217.668-85.959 29.677-166.524 51.431-239.459 64.661-80.4 14.583-154.4 19.339-219.953 14.14L0 931.64c65.817 5.221 140.089.45 220.755-14.179 73.092-13.258 153.814-35.054 239.922-64.783 142-49.022 297.7-118.245 490.005-217.845 84.3-43.66 163.758-86.983 240.6-128.879 105.571-57.558 196.746-107.269 271.532-141.979 119.67-55.257 247.408-105.631 390.511-154 184.5-62.524 365.918-111.507 539.206-145.591C2571.7 29.075 2739.117 9.4 2904.351 4.236c276.286-8.155 553.281 28.516 801.032 106.044 249.43 78.672 468.86 196.642 632.159 290.626 144.595 83.378 279.582 169.293 422.5 260.253 44.523 28.337 90.562 57.638 136.617 86.664 33.854 21.211 68.859 43.142 105.225 64.451 33.9 19.948 62.983 35.547 91.541 49.09 87.045 41.014 220.907 85.256 364.373 63.107 111.748-17.6 211.047-73.8 307.077-128.147l13.715-7.756c148.733-84.017 300.614-167.448 447.5-248.134 143.608-78.885 292.1-160.455 436.835-242.133 110.073-62.225 209.7-117.346 314.274-161.773 121.04-51.419 229.3-79.293 330.952-85.213 66.81-3.9 119.59 2.761 161.342 20.362 59.149 24.939 97.3 72.258 107.432 133.239 5.421 32.645 2.22 67.138-9.261 99.75a207.006 207.006 0 0 1-57.1 85.717l2.076 2.329a210.171 210.171 0 0 0 57.96-87.012c11.656-33.109 14.9-68.136 9.4-101.3-10.311-62.075-49.127-110.231-109.3-135.6-42.2-17.79-95.431-24.535-162.732-20.6-102.021 5.94-210.615 33.894-331.992 85.456-104.728 44.49-204.433 99.657-314.587 161.928-144.714 81.668-293.2 163.236-436.8 242.116-146.889 80.69-298.78 164.125-447.53 248.151l-13.715 7.758c-95.789 54.211-194.838 110.269-306.022 127.78-142.683 22.028-275.91-22.018-362.56-62.844-28.467-13.5-57.477-29.059-91.293-48.959-36.329-21.287-71.312-43.207-105.145-64.4-46.046-29.018-92.082-58.318-136.6-86.654-142.953-90.984-277.97-176.915-422.624-260.332-163.438-94.065-383.061-212.137-632.783-290.9C3480.905 36.766 3231.287.007 2980.039 0z" transform="translate(0 -.002)"/>
                </g>
                <g id="그룹_27094" data-name="그룹 27094" transform="translate(174.898 686.487)">
                    <path id="패스_2185" data-name="패스 2185" class="cls-4" d="M2900.864 0q-13.934 0-27.843.142c-166.257 1.928-332.956 17.371-509.626 47.212-178.01 30.01-359.128 74.339-538.325 131.758-139.151 44.483-269.421 94.535-387.188 148.758-75.936 35.12-170.464 87.652-279.918 148.479-71.579 39.778-145.6 80.913-223.839 122.446C743.362 700.062 589.987 770.2 451.444 819.537c-84.818 30.2-164.107 52.269-235.665 65.585-79.052 14.712-151.558 19.3-215.5 13.637L0 901.866c64.228 5.689 137.02 1.088 216.349-13.675 71.72-13.347 151.169-35.458 236.141-65.716 138.69-49.386 292.2-119.586 483.1-220.922 78.269-41.549 152.3-82.691 223.892-122.476 109.4-60.8 203.881-113.3 279.708-148.373 117.652-54.172 247.8-104.176 386.834-148.621 179.057-57.373 360.031-101.667 537.893-131.653 176.51-29.813 343.051-45.243 509.14-47.168 270.284-2.75 543.939 34.559 791.36 107.861 250.15 74.63 472.977 183.5 639.155 270 166.45 86.793 322.627 177.259 487.976 273.036q44.175 25.587 88.771 51.362l3.96 2.276c33.476 19.233 68.093 39.119 103.294 58.341 34.652 18.99 63.87 33.762 91.945 46.484 59.389 26.756 118.477 45.852 175.621 56.754 64.162 12.24 126.2 14.17 184.406 5.737 111.159-16.4 210.449-71.137 306.467-124.072l11.088-6.111c152.944-84.211 309.019-168.082 459.957-249.191C6360 418.926 6507.809 339.5 6652.146 260.207c111.5-61.336 212.449-115.629 318.887-158.917C7094 51.282 7204.078 25.23 7307.562 21.644c68.053-2.36 121.744 5.9 164.167 25.261 59.477 27.146 97.753 77.118 107.779 140.715 5.525 35.065 1.934 72.189-10.389 107.358a228.279 228.279 0 0 1-60.891 92.86l2.1 2.3a231.459 231.459 0 0 0 61.732-94.132c12.49-35.654 16.13-73.3 10.524-108.874-10.194-64.665-49.1-115.473-109.564-143.066-42.875-19.567-97.029-27.919-165.57-25.542-103.856 3.6-214.284 29.725-337.6 79.875-106.593 43.35-207.631 97.688-319.214 159.073-144.324 79.282-292.128 158.708-435.065 235.519-150.937 81.115-307.021 164.991-459.977 249.209l-11.09 6.113c-95.776 52.8-194.813 107.4-305.413 123.716-57.85 8.383-119.55 6.461-183.369-5.714-56.907-10.857-115.759-29.877-174.92-56.532-28-12.688-57.15-27.425-91.731-46.379-35.177-19.206-69.779-39.084-103.241-58.307l-3.958-2.274q-44.621-25.759-88.763-51.359c-165.379-95.8-321.586-186.279-488.1-273.1-166.3-86.571-389.3-195.52-639.706-270.228C3426.083 37.259 3162.369 0 2900.864 0z" transform="translate(0 -.002)"/>
                </g>
                <g id="그룹_27095" data-name="그룹 27095" transform="translate(180.349 693.85)">
                    <path id="패스_2186" data-name="패스 2186" class="cls-4" d="M7314.943 0q-3.972 0-8 .048c-105.687 1.256-217.948 25.557-343.2 74.295-108.432 42.193-210.812 95.709-323.84 156.213-144.017 77.011-291.235 154.417-433.6 229.274-154.903 81.448-315.083 165.67-472.17 249.918l-8.032 4.309c-95.9 51.467-195.065 104.688-305.238 119.81-106.3 14.37-225.417-6.372-354.022-61.65-27.392-11.83-56.68-25.745-92.172-43.8-33.216-16.841-66.245-34.183-98.187-50.953l-27.811-14.633c-196.059-103.32-381.245-200.91-577.754-293.118-168.38-78.9-394.046-178.573-646.631-249.555a2970.828 2970.828 0 0 0-388.165-80.486 3082.908 3082.908 0 0 0-394.336-29.312c-167.334-1.412-333.142 9.777-506.926 34.219A3594.666 3594.666 0 0 0 1797.811 162.4c-137.377 41.374-266.426 89.621-383.558 143.393-78.123 36-178.049 92.618-293.752 158.179-64.592 36.6-131.385 74.448-201.5 112.755C632.646 731.9 269.44 906.623.3 880.185l-.3 3.1c269.978 26.524 633.741-148.439 920.489-303.82 70.144-38.321 136.947-76.174 201.55-112.781 115.641-65.528 215.513-122.118 293.516-158.06 117-53.713 245.914-101.907 383.156-143.241A3591.719 3591.719 0 0 1 2335.3 47.672c173.631-24.421 339.291-35.6 506.463-34.19a3080.235 3080.235 0 0 1 393.934 29.282 2968.32 2968.32 0 0 1 387.754 80.4c252.363 70.918 477.876 170.524 646.148 249.375 196.443 92.179 381.6 189.753 577.624 293.055l27.815 14.635c31.952 16.777 64.992 34.124 98.225 50.973 35.549 18.079 64.893 32.023 92.35 43.879 129.132 55.508 248.8 76.324 355.678 61.878 110.73-15.2 210.149-68.554 306.292-120.152l8.031-4.309c157.075-84.243 317.245-168.46 472.141-249.9 142.375-74.86 289.6-152.267 433.624-229.285 112.935-60.455 215.229-113.927 323.5-156.057 124.9-48.6 236.8-72.832 342.105-74.08 69.24-.848 123.891 9.038 167 30.163 59.871 29.338 98.29 81.983 108.18 148.237 5.594 37.478 1.59 77.222-11.58 114.934a250.07 250.07 0 0 1-64.673 99.987l2.132 2.279a253.2 253.2 0 0 0 65.487-101.238c13.335-38.188 17.388-78.446 11.72-116.425-10.047-67.3-49.072-120.772-109.892-150.576C7433.473 10.012 7380.935 0 7314.943 0z" transform="translate(0 -.003)"/>
                </g>
                <g id="그룹_27096" data-name="그룹 27096" transform="translate(185.8 682.747)">
                    <path id="패스_2187" data-name="패스 2187" class="cls-4" d="M7298.958 0c-105.336 0-217.078 22.514-341.333 68.747-110.1 40.965-218.194 95.917-328.463 153.359-143.793 74.845-290.507 150.34-432.394 223.351-158.771 81.7-322.946 166.178-484.1 250.3l-4.49 2.345c-96.177 50.214-195.63 102.138-305.546 116.067-103.286 12.937-217.689-7.034-349.756-61.054-34.442-14.135-67.583-29.452-92.61-41.213-29.676-13.918-59.487-28.171-88.317-41.953l-22.979-10.982c-192.3-92.085-397.97-189.516-612.144-279.429-248.1-104.054-455.771-176.784-653.554-228.889a3455.291 3455.291 0 0 0-772.718-111.6 3600.974 3600.974 0 0 0-504.227 21.225C2121.048 81.048 1940.789 116 1770.556 164.152c-135.807 38.362-263.634 84.8-379.929 138.029-77.933 35.763-179.761 94.652-297.667 162.842-60.655 35.078-123.372 71.349-189.084 108.1-247.8 137.815-386.316 195.405-468.95 226.736C259.2 866.483 117.048 892.723.335 880.072L0 883.173c117.212 12.7 259.838-13.594 436.033-80.4 172.729-65.49 350.6-160.876 469.362-226.927 65.734-36.766 128.463-73.043 189.126-108.126 117.839-68.147 219.607-127 297.406-162.7 116.149-53.159 243.824-99.547 379.476-137.865 170.071-48.108 350.163-83.024 535.273-103.778a3598.163 3598.163 0 0 1 503.788-21.21 3452.318 3452.318 0 0 1 772.015 111.5c197.639 52.067 405.18 124.754 653.142 228.748 214.107 89.886 419.737 187.3 612.007 279.365l22.981 10.983c28.834 13.785 58.651 28.041 88.336 41.962C4984 726.5 5017.192 741.837 5051.7 756c132.58 54.228 247.5 74.267 351.33 61.263 110.474-14 210.178-66.055 306.6-116.4l4.489-2.343c161.14-84.114 325.313-168.591 484.079-250.289 141.888-73.01 288.606-148.507 432.406-223.358 110.181-57.393 218.184-112.3 328.112-153.2 123.891-46.1 235.3-68.55 340.251-68.552 2.485 0 4.952.011 7.429.038 70.284.71 125.837 12.179 169.832 35.064 60.362 31.7 98.932 87.175 108.608 156.208 11.561 82.5-19.575 170.311-81.257 229.175l2.154 2.258c62.4-59.547 93.891-148.392 82.192-231.864-9.817-70.054-48.974-126.361-110.254-158.54C7433.224 12.34 7377.211.755 7306.426.04a773.6 773.6 0 0 0-7.468-.04z" transform="translate(0 -.003)"/>
                </g>
                <g id="그룹_27097" data-name="그룹 27097" transform="translate(191.249 671.304)">
                    <path id="패스_2188" data-name="패스 2188" class="cls-4" d="M7282.464 0C7180 0 7071.461 20.85 6951.51 63.5c-111.884 39.781-221.4 93.891-333.089 150.5-143.649 72.785-289.96 146.481-431.455 217.753-162.54 81.872-330.614 166.531-495.749 250.355l-.411.209c-96.625 49.049-196.542 99.768-306.391 112.5-55.328 6.368-112.79 3.4-175.667-9.063-51.45-10.2-107-27.01-169.824-51.4-32.371-12.587-63.853-26-93.051-38.63q-30.081-12.989-60.035-26.006-26.676-11.576-53.312-23.1C4661.573 572.6 4435.5 476.513 4202.736 389.7c-246.885-92.027-456.758-158.189-660.479-208.223-255.657-62.632-512.345-100.788-762.935-113.402a3773.627 3773.627 0 0 0-501.522 8.234c-188.166 15.758-368 46.016-534.5 89.935-134.4 35.423-261 80.056-376.3 132.666-77.37 35.352-180.678 96.351-300.3 166.983-57.114 33.724-116.174 68.6-177.948 103.965-245.318 140.051-381.17 198.26-462.017 229.862C253.417 867.467 113.946 893.827.367 880.3L0 883.4c114.1 13.587 254.063-12.835 427.873-80.774 168.994-66.059 344.854-162.937 462.427-230.06 61.793-35.379 120.862-70.258 177.987-103.988 119.544-70.587 222.786-131.545 300.008-166.83 115.135-52.534 241.573-97.108 375.8-132.487 166.324-43.873 345.974-74.1 533.961-89.843a3770.915 3770.915 0 0 1 501.109-8.229c250.393 12.605 506.882 50.73 762.346 113.32 203.6 50 413.364 116.134 660.134 208.116 232.693 86.786 458.721 182.852 629.638 256.85q26.648 11.519 53.311 23.1 29.969 13 60.04 26.009c29.224 12.636 60.738 26.068 93.159 38.675 63 24.451 118.718 41.313 170.346 51.547 63.2 12.529 120.974 15.507 176.631 9.1 110.406-12.79 210.576-63.637 307.447-112.811l.41-.209c165.131-83.822 333.2-168.48 495.742-250.352 141.5-71.272 287.808-144.969 431.462-217.754 111.594-56.564 221.014-110.626 332.724-150.344C7081.312 20.657 7196.88.082 7305.813 3.487c71.618 2.249 128.1 15.322 172.663 39.966 60.845 33.8 99.6 91.913 109.119 163.637 11.612 87.456-21.473 180.94-86.343 243.972l2.175 2.237c65.563-63.7 99-158.2 87.26-246.62-9.653-72.727-48.969-131.663-110.7-165.954-45.013-24.891-101.953-38.092-174.076-40.354Q7294.247 0 7282.464 0z" transform="translate(0 -.003)"/>
                </g>
                <g id="그룹_27098" data-name="그룹 27098" transform="translate(196.697 659.543)">
                    <path id="패스_2189" data-name="패스 2189" class="cls-4" d="M7266.043 0c-99.59 0-204.924 19.272-320.648 58.562-113.645 38.586-224.595 91.858-337.714 147.646l-937.921 462.57c-90.75 44.757-193.608 95.484-303.568 106.995-152.03 15.913-302.218-43.492-434.718-95.905-248.41-98.264-453.936-174.767-646.8-240.758-238.238-81.517-455.532-146.328-664.3-198.136C3123.431 117.65 2674.938 69.141 2249.265 92.663c-164.478 9.091-320.93 29.391-465.013 60.343-159.148 34.184-307.48 82.28-440.875 142.95C1266.9 330.742 1162.5 393.7 1041.607 466.6c-163 98.3-347.75 209.712-531.678 293.885C296.189 858.3 129.517 897.674.4 880.849l-.4 3.093c129.718 16.909 296.939-22.551 511.227-120.618 184.089-84.246 368.918-195.708 531.991-294.05 120.8-72.851 225.135-135.769 301.451-170.477 133.191-60.578 281.309-108.6 440.239-142.741 143.925-30.916 300.215-51.2 464.531-60.277C2674.8 72.271 3122.986 120.755 3619.624 244c208.681 51.788 425.89 116.572 664.042 198.061 192.815 65.974 398.294 142.461 646.66 240.706 132.833 52.545 283.393 112.1 436.19 96.107 110.514-11.569 213.639-62.427 304.624-107.3l937.921-462.569c113.022-55.742 223.871-108.966 337.336-147.489 130.7-44.37 248.085-63.149 358.838-57.383C7378.188 7.928 7435.593 22.6 7480.729 49c61.371 35.9 100.323 96.663 109.671 171.1 11.606 92.4-23.442 191.542-91.472 258.729l2.191 2.22c68.706-67.854 104.1-167.993 92.376-261.337-9.477-75.425-48.966-137.01-111.195-173.406-45.572-26.652-103.44-41.467-176.9-45.286Q7285.867 0 7266.043 0z" transform="translate(0 -.003)"/>
                </g>
            </g>
        </g>
    </g>
</svg>
