<svg xmlns="http://www.w3.org/2000/svg" width="164" height="32" viewBox="0 0 164 32">
  <g id="group_27197" data-name="group 27197" transform="translate(10245 -7288)">
    <rect id="rectangle_9763" data-name="rectangle 9763" width="164" height="32" transform="translate(-10245 7288)" fill="#fff" opacity="0.001"/>
    <g id="logo_firmachain" transform="translate(-10243.968 7288.707)">
      <g id="group_20769" data-name="group 20769" transform="translate(0 0)">
        <g id="Page-1_4_">
          <g id="group_20768" data-name="group 20768">
            <g id="Send-Copy_12_">
              <g id="FIRMA-CHAIN_12_" transform="translate(0 0)">
                <path id="Path_126_" d="M64.08,70.776l-.607-.393v-6.36l3.18-1.822L64.08,60.7,60.9,62.522v9.362l3.18,1.822L72.3,69.025l-2.5-1.536Z" transform="translate(-50.716 -48.98)" fill="#fff"/>
                <path id="Path_125_" d="M45.764,27.9,32.4,35.547V50.84L34.937,52.3V37.012L45.764,30.83l4.9,2.787.572-2.608Z" transform="translate(-32.4 -27.9)" fill="#fff"/>
                <path id="Path_124_" d="M65.752,47.587V59.915L54.89,66.1l-5.717-3.287V50.517L54.89,47.23l5.753,3.287,2.573-1.465h0L54.89,44.3,46.6,49.052V64.31l8.29,4.717,13.4-7.647V46.087Z" transform="translate(-41.526 -38.44)" fill="#fff"/>
                <path id="Path_123_" d="M135.2,51h10.684v2.5H138.13v4.145h6.682v2.5H138.13v5.931H135.2Z" transform="translate(-98.468 -42.746)" fill="#fff"/>
                <path id="Path_122_" d="M170.2,51h2.93V66.079H170.2Z" transform="translate(-120.962 -42.746)" fill="#fff"/>
                <path id="Shape_38_" d="M198.327,61.076v5H195.4V61.755l-1.286-1.429H189.43v5.753H186.5V51H196l2.251,2.323V57.86l-1.465,1.5Zm-8.9-3.18h5.181l.75-.75v-2.93l-.75-.75H189.43Z" transform="translate(-131.437 -42.746)" fill="#fff"/>
                <path id="Path_121_" d="M227.2,51h2.68l4.5,9.719h0L238.92,51h2.68V66.079h-2.787V56.9h0l-3.395,7.075h-1.93L230.094,56.9h0v9.183H227.2Z" transform="translate(-157.595 -42.746)" fill="#fff"/>
                <path id="Shape_37_" d="M277.367,51h2.68l5.5,15.043h-2.894L281.44,62.72h-5.36l-1.215,3.323H271.9Zm3.323,9.326-2-5.646h0l-1.93,5.646Z" transform="translate(-186.323 -42.746)" fill="#fff"/>
                <path id="Path_120_" d="M313.9,63.613V53.5l2.465-2.5h7.361l2.43,2.43v2.287h-2.894V54.5l-1.036-1h-4.288l-1.143,1.143v7.932l1.143,1.108h4.288l1.036-1V61.326h2.894v2.287l-2.43,2.43h-7.361Z" transform="translate(-213.315 -42.746)" fill="#fff"/>
                <path id="Path_119_" d="M354,51h2.93v6.325h6.36V51h2.93V66.079h-2.93V59.79h-6.36v6.289H354Z" transform="translate(-239.087 -42.746)" fill="#fff"/>
                <path id="Shape_36_" d="M397.967,51h2.68l5.5,15.043h-2.966l-1.215-3.323h-5.288l-1.215,3.323H392.5Zm3.323,9.326-2-5.646h0l-1.93,5.646Z" transform="translate(-263.83 -42.746)" fill="#fff"/>
                <path id="Path_118_" d="M435.2,51h2.93V66.079H435.2Z" transform="translate(-291.273 -42.746)" fill="#fff"/>
                <path id="Path_117_" d="M451.5,51h2.644l6.682,10.219h0V51h2.859V66.079H461.04L454.323,55.86h0V66.079H451.5Z" transform="translate(-301.748 -42.746)" fill="#fff"/>
              </g>
            </g>
          </g>
        </g>
      </g>
    </g>
  </g>
</svg>
